<svg version="1.1" viewBox="0 0 264.58 264.58" xmlns="http://www.w3.org/2000/svg">
 <g transform="translate(0 -32.417)">
  <g transform="matrix(1.1394 0 0 1.1394 -20.214 -18.925)" fill="none">
   <g stroke="#808080">
    <polyline transform="matrix(0 1.2298 -1.2298 0 976.3 -232.13)" points="252 687 253 687 253 682 252 682 252 687"/>
    <polyline transform="matrix(0 1.2298 -1.2298 0 976.3 -232.13)" points="284 649 284 650 289 650 289 649 284 649"/>
    <polyline transform="matrix(0 1.2298 -1.2298 0 976.3 -232.13)" points="347 660 347 661 352 661 352 660 347 660"/>
    <polyline transform="matrix(0 1.2298 -1.2298 0 976.3 -232.13)" points="352 730 352 728 347 728 347 730 352 730"/>
    <polyline transform="matrix(0 1.2298 -1.2298 0 976.3 -232.13)" points="347 661 347 660 352 660 352 661 347 661"/>
    <polyline transform="matrix(0 1.2298 -1.2298 0 976.3 -232.13)" points="344 656 354 656 354 658 344 658 344 656"/>
    <polyline transform="matrix(0 1.2298 -1.2298 0 976.3 -232.13)" points="375 705 375 684 388 684 389 684 391 684 391 705 389 705 388 705 375 705"/>
    <polyline transform="matrix(0 1.2298 -1.2298 0 976.3 -232.13)" points="388 684 388 705 388 684"/>
    <polyline transform="matrix(0 1.2298 -1.2298 0 976.3 -232.13)" points="389 684 389 705 389 684"/>
    <polyline transform="matrix(0 1.2298 -1.2298 0 976.3 -232.13)" points="284 650 284 649 289 649 289 650 284 650"/>
    <polyline transform="matrix(0 1.2298 -1.2298 0 976.3 -232.13)" points="282 645 292 645 292 648 282 648 282 645"/>
    <polyline transform="matrix(0 1.2298 -1.2298 0 976.3 -232.13)" points="253 687 252 687 252 682 253 682 253 687"/>
    <polyline transform="matrix(0 1.2298 -1.2298 0 976.3 -232.13)" points="248 689 248 679 250 679 250 689 248 689"/>
    <polyline transform="matrix(0 1.2298 -1.2298 0 976.3 -232.13)" points="352 728 352 730 347 730 347 728 352 728"/>
    <polyline transform="matrix(0 1.2298 -1.2298 0 976.3 -232.13)" points="354 734 344 734 344 731 354 731 354 734"/>
   </g>
   <g stroke="#008000" stroke-width="3">
    <polyline transform="matrix(0 1.2298 -1.2298 0 976.3 -232.13)" points="388 684 388 705"/>
    <polyline transform="matrix(0 1.2298 -1.2298 0 976.3 -232.13)" points="389 684 389 705"/>
    <polyline transform="matrix(0 1.2298 -1.2298 0 976.3 -232.13)" points="354 734 344 734"/>
    <polyline transform="matrix(0 1.2298 -1.2298 0 976.3 -232.13)" points="354 731 344 731"/>
    <polyline transform="matrix(0 1.2298 -1.2298 0 976.3 -232.13)" points="344 656 354 656"/>
    <polyline transform="matrix(0 1.2298 -1.2298 0 976.3 -232.13)" points="344 658 354 658"/>
    <polyline transform="matrix(0 1.2298 -1.2298 0 976.3 -232.13)" points="282 645 292 645"/>
    <polyline transform="matrix(0 1.2298 -1.2298 0 976.3 -232.13)" points="282 648 292 648"/>
    <polyline transform="matrix(0 1.2298 -1.2298 0 976.3 -232.13)" points="248 689 248 679"/>
    <polyline transform="matrix(0 1.2298 -1.2298 0 976.3 -232.13)" points="250 689 250 679"/>
   </g>
   <g stroke="#000" stroke-width="3">
    <polyline transform="matrix(0 1.2298 -1.2298 0 976.3 -232.13)" points="344 734 344 731 334 731 334 721 323 721 313 721 313 752 334 752 334 741 386 741 386 752 406 752 406 721 396 721 396 658 406 658 406 637 386 637 386 648 334 648 334 627 313 627 313 637 250 637 250 627 230 627 230 648 240 648 240 731 230 731 230 752 250 752 250 741 271 741 271 752 292 752 292 721 282 721 271 721 271 731 250 731 250 689 248 689"/>
    <polyline transform="matrix(0 1.2298 -1.2298 0 976.3 -232.13)" points="354 656 354 658 375 658 375 684 375 705 375 731 354 731 354 734"/>
    <polyline transform="matrix(0 1.2298 -1.2298 0 976.3 -232.13)" points="375 684 388 684 389 684 391 684 391 705 389 705 388 705 375 705"/>
    <polyline transform="matrix(0 1.2298 -1.2298 0 976.3 -232.13)" points="292 645 292 648 323 648 323 658 344 658 344 656"/>
    <polyline transform="matrix(0 1.2298 -1.2298 0 976.3 -232.13)" points="248 679 250 679 250 648 282 648 282 645"/>
   </g>
  </g>
 </g>
</svg>
