<?xml version="1.0" encoding="UTF-8" standalone="no"?>
<svg
   xmlns:dc="http://purl.org/dc/elements/1.1/"
   xmlns:cc="http://creativecommons.org/ns#"
   xmlns:rdf="http://www.w3.org/1999/02/22-rdf-syntax-ns#"
   xmlns:svg="http://www.w3.org/2000/svg"
   xmlns="http://www.w3.org/2000/svg"
   xmlns:xlink="http://www.w3.org/1999/xlink"
   xml:space="preserve"
   enable-background="new 0 0 300 276"
   viewBox="0 0 300 276"
   height="138px"
   width="150px"
   y="0px"
   x="0px"
   id="Layer_1"
   version="1.1"><metadata
     id="metadata365"><rdf:RDF><cc:Work
         rdf:about=""><dc:format>image/svg+xml</dc:format><dc:type
           rdf:resource="http://purl.org/dc/dcmitype/StillImage" /><dc:title></dc:title></cc:Work></rdf:RDF></metadata><defs
     id="defs363"><defs
       id="defs5"><rect
         id="SVGID_1_"
         y="-7"
         width="300"
         height="300" /></defs><clipPath
       id="SVGID_2_"><use
         xlink:href="#SVGID_1_"
         overflow="visible"
         id="use9" /></clipPath><defs
       id="defs13"><rect
         x="0"
         height="300"
         width="300"
         y="-7"
         id="SVGID_3_" /></defs><clipPath
       id="SVGID_4_"><use
         height="100%"
         width="100%"
         y="0"
         x="0"
         style="overflow:visible"
         id="use17"
         overflow="visible"
         xlink:href="#SVGID_3_" /></clipPath></defs><path
     style="fill:#ced8ee"
     id="path19"
     d="m 32.813,30.5 234.375,0 c 10.354,0 18.75,8.396 18.75,18.75 l 0,178.125 c 0,10.354 -8.396,18.75 -18.75,18.75 l -234.375,0 c -10.354,0 -18.75,-8.396 -18.75,-18.75 l 0,-178.125 c 0,-10.354 8.395,-18.75 18.75,-18.75"
     clip-path="url(#SVGID_4_)" /><path
     style="fill:#6d6daa"
     id="path21"
     d="m 267.188,250.813 -234.375,0 C 19.876,250.799 9.389,240.312 9.375,227.375 l 0,-178.125 C 9.389,36.313 19.876,25.826 32.813,25.812 l 234.375,0 c 12.937,0.014 23.424,10.501 23.438,23.438 l 0,178.125 c -0.015,12.937 -10.502,23.424 -23.438,23.438 M 32.813,35.188 C 25.052,35.197 18.76,41.489 18.75,49.251 l 0,178.125 c 0.009,7.764 6.301,14.058 14.063,14.063 l 234.375,0 c 7.764,-0.005 14.054,-6.299 14.063,-14.063 l 0,-178.126 c -0.009,-7.761 -6.299,-14.053 -14.063,-14.063 l -234.375,0 z"
     clip-path="url(#SVGID_4_)" /><g
     style="opacity:0.5"
     id="g23"
     enable-background="new    "
     clip-path="url(#SVGID_4_)"><g
       id="g25"><defs
         id="defs27"><rect
           height="32.813"
           width="271.875"
           y="30.5"
           x="14.063"
           id="SVGID_5_" /></defs><clipPath
         id="SVGID_6_"><use
           height="100%"
           width="100%"
           y="0"
           x="0"
           style="overflow:visible"
           id="use31"
           overflow="visible"
           xlink:href="#SVGID_5_" /></clipPath><path
         style="fill:#ffffff"
         id="path33"
         d="m 267.188,30.5 -234.375,0 c -10.354,0 -18.75,8.396 -18.75,18.75 l 0,14.063 c 0,-10.354 8.396,-18.75 18.75,-18.75 l 234.375,0 c 10.354,0 18.75,8.396 18.75,18.75 l 0,-14.063 c 0,-10.354 -8.396,-18.75 -18.75,-18.75"
         clip-path="url(#SVGID_6_)" /></g></g><g
     style="opacity:0.2"
     id="g35"
     enable-background="new    "
     clip-path="url(#SVGID_4_)"><g
       id="g37"><defs
         id="defs39"><rect
           height="32.813"
           width="271.875"
           y="213.313"
           x="14.063"
           id="SVGID_7_" /></defs><clipPath
         id="SVGID_8_"><use
           height="100%"
           width="100%"
           y="0"
           x="0"
           style="overflow:visible"
           id="use43"
           overflow="visible"
           xlink:href="#SVGID_7_" /></clipPath><path
         style="fill:#2c4b75"
         id="path45"
         d="m 267.188,232.063 -234.375,0 c -10.354,0 -18.75,-8.396 -18.75,-18.75 l 0,14.063 c 0,10.354 8.396,18.75 18.75,18.75 l 234.375,0 c 10.354,0 18.75,-8.396 18.75,-18.75 l 0,-14.063 c 0,10.354 -8.396,18.75 -18.75,18.75"
         clip-path="url(#SVGID_8_)" /></g></g><path
     style="fill:#c9c1f5"
     id="path47"
     d="m 248.438,105.5 0,-18.75 c 0,-5.175 4.202,-9.375 9.375,-9.375 l 0,-9.375 c 0,-5.175 -4.202,-9.375 -9.375,-9.375 l -196.875,0 c -5.175,0 -9.375,4.2 -9.375,9.375 l 0,140.625 c 0,5.182 4.2,9.375 9.375,9.375 l 196.875,0 c 5.173,0 9.375,-4.193 9.375,-9.375 l 0,-9.375 c -5.173,0 -9.375,-4.193 -9.375,-9.375 l 0,-18.75 c 0,-5.173 4.202,-9.375 9.375,-9.375 l 0,-46.875 c -5.173,0 -9.375,-4.195 -9.375,-9.375"
     clip-path="url(#SVGID_4_)" /><polygon
     style="fill:#fff27d"
     id="polygon49"
     points="56.25,218 70.313,171.125 117.188,171.125 131.25,218 "
     clip-path="url(#SVGID_4_)" /><g
     style="opacity:0.5"
     id="g51"
     enable-background="new    "
     clip-path="url(#SVGID_4_)"><g
       id="g53"><defs
         id="defs55"><rect
           height="14.063"
           width="55.312"
           y="171.125"
           x="66.094002"
           id="SVGID_9_" /></defs><clipPath
         id="SVGID_10_"><use
           height="100%"
           width="100%"
           y="0"
           x="0"
           style="overflow:visible"
           id="use59"
           overflow="visible"
           xlink:href="#SVGID_9_" /></clipPath><polygon
         style="fill:#ffffff"
         id="polygon61"
         points="121.408,185.188 117.19,171.125 70.315,171.125 66.092,185.188 "
         clip-path="url(#SVGID_10_)" /></g></g><g
     style="opacity:0.5"
     id="g63"
     enable-background="new    "
     clip-path="url(#SVGID_4_)"><g
       id="g65"><defs
         id="defs67"><rect
           height="43.643002"
           width="43.640999"
           y="171.125"
           x="57.221001"
           id="SVGID_11_" /></defs><clipPath
         id="SVGID_12_"><use
           height="100%"
           width="100%"
           y="0"
           x="0"
           style="overflow:visible"
           id="use71"
           overflow="visible"
           xlink:href="#SVGID_11_" /></clipPath><polygon
         style="fill:#ffffff"
         id="polygon73"
         points="70.31,171.125 57.218,214.764 100.859,171.125 "
         clip-path="url(#SVGID_12_)" /></g></g><g
     style="opacity:0.5"
     id="g75"
     enable-background="new    "
     clip-path="url(#SVGID_4_)"><g
       id="g77"><defs
         id="defs79"><rect
           height="44.132999"
           width="48.722"
           y="173.867"
           x="73.874001"
           id="SVGID_13_" /></defs><clipPath
         id="SVGID_14_"><use
           height="100%"
           width="100%"
           y="0"
           x="0"
           style="overflow:visible"
           id="use83"
           overflow="visible"
           xlink:href="#SVGID_13_" /></clipPath><polygon
         style="fill:#ffffff"
         id="polygon85"
         points="118.007,173.867 73.874,218 93.764,218 122.596,189.161 "
         clip-path="url(#SVGID_14_)" /></g></g><g
     style="opacity:0.2"
     id="g87"
     enable-background="new    "
     clip-path="url(#SVGID_4_)"><g
       id="g89"><defs
         id="defs91"><rect
           height="14.063"
           width="75"
           y="203.938"
           x="56.25"
           id="SVGID_15_" /></defs><clipPath
         id="SVGID_16_"><use
           height="100%"
           width="100%"
           y="0"
           x="0"
           style="overflow:visible"
           id="use95"
           overflow="visible"
           xlink:href="#SVGID_15_" /></clipPath><polygon
         style="fill:#750000"
         id="polygon97"
         points="60.471,203.938 56.252,218 131.252,218 127.029,203.938 "
         clip-path="url(#SVGID_16_)" /></g></g><path
     style="fill:#014463;fill-opacity:1"
     id="path99"
     d="m 131.248,222.688 -75,0 c -2.586,0 -4.688,-2.097 -4.688,-4.688 0,-0.453 0.066,-0.911 0.197,-1.346 L 65.82,169.779 c 0.595,-1.982 2.424,-3.342 4.491,-3.342 l 46.875,0 c 2.074,0 3.896,1.359 4.491,3.342 l 14.063,46.875 c 0.742,2.48 -0.659,5.09 -3.145,5.836 -0.432,0.133 -0.887,0.198 -1.347,0.198 m -68.694,-9.375 62.395,0 -11.25,-37.5 -39.901,0 -11.244,37.5 z"
     clip-path="url(#SVGID_4_)" /><polygon
     style="fill:#fff27d"
     id="polygon101"
     points="131.25,218 145.313,171.125 192.188,171.125 206.25,218 "
     clip-path="url(#SVGID_4_)" /><g
     style="opacity:0.5"
     id="g103"
     enable-background="new    "
     clip-path="url(#SVGID_4_)"><g
       id="g105"><defs
         id="defs107"><rect
           height="14.063"
           width="55.313999"
           y="171.125"
           x="141.09399"
           id="SVGID_17_" /></defs><clipPath
         id="SVGID_18_"><use
           height="100%"
           width="100%"
           y="0"
           x="0"
           style="overflow:visible"
           id="use111"
           overflow="visible"
           xlink:href="#SVGID_17_" /></clipPath><polygon
         style="fill:#ffffff"
         id="polygon113"
         points="196.408,185.188 192.188,171.125 145.315,171.125 141.092,185.188 "
         clip-path="url(#SVGID_18_)" /></g></g><g
     style="opacity:0.5"
     id="g115"
     enable-background="new    "
     clip-path="url(#SVGID_4_)"><g
       id="g117"><defs
         id="defs119"><rect
           height="43.643002"
           width="43.639"
           y="171.125"
           x="132.22099"
           id="SVGID_19_" /></defs><clipPath
         id="SVGID_20_"><use
           height="100%"
           width="100%"
           y="0"
           x="0"
           style="overflow:visible"
           id="use123"
           overflow="visible"
           xlink:href="#SVGID_19_" /></clipPath><polygon
         style="fill:#ffffff"
         id="polygon125"
         points="145.31,171.125 132.218,214.764 175.859,171.125 "
         clip-path="url(#SVGID_20_)" /></g></g><g
     style="opacity:0.5"
     id="g127"
     enable-background="new    "
     clip-path="url(#SVGID_4_)"><g
       id="g129"><defs
         id="defs131"><rect
           height="44.132999"
           width="48.724998"
           y="173.867"
           x="148.87399"
           id="SVGID_21_" /></defs><clipPath
         id="SVGID_22_"><use
           height="100%"
           width="100%"
           y="0"
           x="0"
           style="overflow:visible"
           id="use135"
           overflow="visible"
           xlink:href="#SVGID_21_" /></clipPath><polygon
         style="fill:#ffffff"
         id="polygon137"
         points="193.007,173.867 148.874,218 168.764,218 197.594,189.161 "
         clip-path="url(#SVGID_22_)" /></g></g><g
     style="opacity:0.2"
     id="g139"
     enable-background="new    "
     clip-path="url(#SVGID_4_)"><g
       id="g141"><defs
         id="defs143"><rect
           height="14.063"
           width="75"
           y="203.938"
           x="131.25"
           id="SVGID_23_" /></defs><clipPath
         id="SVGID_24_"><use
           height="100%"
           width="100%"
           y="0"
           x="0"
           style="overflow:visible"
           id="use147"
           overflow="visible"
           xlink:href="#SVGID_23_" /></clipPath><polygon
         style="fill:#750000"
         id="polygon149"
         points="135.471,203.938 131.252,218 206.25,218 202.029,203.938 "
         clip-path="url(#SVGID_24_)" /></g></g><path
     style="fill:#014463;fill-opacity:1"
     id="path151"
     d="m 206.25,222.688 -75.002,0 c -2.586,0 -4.688,-2.097 -4.688,-4.688 0,-0.453 0.066,-0.911 0.197,-1.346 l 14.063,-46.875 c 0.595,-1.982 2.424,-3.342 4.491,-3.342 l 46.877,0 c 2.069,0 3.896,1.359 4.49,3.342 l 14.063,46.875 c 0.737,2.48 -0.663,5.09 -3.145,5.836 -0.435,0.133 -0.888,0.198 -1.346,0.198 m -68.696,-9.375 62.397,0 -11.252,-37.5 -39.901,0 -11.244,37.5 z"
     clip-path="url(#SVGID_4_)" /><polygon
     style="fill:#fff27d"
     id="polygon153"
     points="93.75,171.125 107.813,124.25 154.688,124.25 168.75,171.125 "
     clip-path="url(#SVGID_4_)" /><g
     style="opacity:0.5"
     id="g155"
     enable-background="new    "
     clip-path="url(#SVGID_4_)"><g
       id="g157"><defs
         id="defs159"><rect
           height="14.063"
           width="55.313999"
           y="124.25"
           x="103.594"
           id="SVGID_25_" /></defs><clipPath
         id="SVGID_26_"><use
           height="100%"
           width="100%"
           y="0"
           x="0"
           style="overflow:visible"
           id="use163"
           overflow="visible"
           xlink:href="#SVGID_25_" /></clipPath><polygon
         style="fill:#ffffff"
         id="polygon165"
         points="158.908,138.313 154.688,124.25 107.815,124.25 103.592,138.313 "
         clip-path="url(#SVGID_26_)" /></g></g><g
     style="opacity:0.5"
     id="g167"
     enable-background="new    "
     clip-path="url(#SVGID_4_)"><g
       id="g169"><defs
         id="defs171"><rect
           height="43.643002"
           width="43.640999"
           y="124.25"
           x="94.721001"
           id="SVGID_27_" /></defs><clipPath
         id="SVGID_28_"><use
           height="100%"
           width="100%"
           y="0"
           x="0"
           style="overflow:visible"
           id="use175"
           overflow="visible"
           xlink:href="#SVGID_27_" /></clipPath><polygon
         style="fill:#ffffff"
         id="polygon177"
         points="107.81,124.25 94.718,167.889 138.359,124.25 "
         clip-path="url(#SVGID_28_)" /></g></g><g
     style="opacity:0.5"
     id="g179"
     enable-background="new    "
     clip-path="url(#SVGID_4_)"><g
       id="g181"><defs
         id="defs183"><rect
           height="44.132999"
           width="48.724998"
           y="126.992"
           x="111.374"
           id="SVGID_29_" /></defs><clipPath
         id="SVGID_30_"><use
           height="100%"
           width="100%"
           y="0"
           x="0"
           style="overflow:visible"
           id="use187"
           overflow="visible"
           xlink:href="#SVGID_29_" /></clipPath><polygon
         style="fill:#ffffff"
         id="polygon189"
         points="155.507,126.992 111.374,171.125 131.264,171.125 160.094,142.288 "
         clip-path="url(#SVGID_30_)" /></g></g><g
     style="opacity:0.2"
     id="g191"
     enable-background="new    "
     clip-path="url(#SVGID_4_)"><g
       id="g193"><defs
         id="defs195"><rect
           height="14.063"
           width="75"
           y="157.063"
           x="93.75"
           id="SVGID_31_" /></defs><clipPath
         id="SVGID_32_"><use
           height="100%"
           width="100%"
           y="0"
           x="0"
           style="overflow:visible"
           id="use199"
           overflow="visible"
           xlink:href="#SVGID_31_" /></clipPath><polygon
         style="fill:#750000"
         id="polygon201"
         points="97.971,157.063 93.752,171.125 168.75,171.125 164.529,157.063 "
         clip-path="url(#SVGID_32_)" /></g></g><path
     style="fill:#014463;fill-opacity:1"
     id="path203"
     d="m 168.75,175.813 -75.002,0 c -2.586,0 -4.688,-2.097 -4.688,-4.688 0,-0.453 0.066,-0.911 0.197,-1.346 l 14.063,-46.875 c 0.595,-1.982 2.424,-3.342 4.491,-3.342 l 46.877,0 c 2.069,0 3.896,1.359 4.49,3.342 l 14.063,46.875 c 0.737,2.48 -0.663,5.09 -3.145,5.836 -0.435,0.133 -0.888,0.198 -1.346,0.198 m -68.696,-9.375 62.397,0 -11.252,-37.5 -39.901,0 -11.244,37.5 z"
     clip-path="url(#SVGID_4_)" /><polygon
     style="fill:#fff27d"
     id="polygon205"
     points="131.25,124.25 145.313,77.375 192.188,77.375 206.25,124.25 "
     clip-path="url(#SVGID_4_)" /><g
     style="opacity:0.5"
     id="g207"
     enable-background="new    "
     clip-path="url(#SVGID_4_)"><g
       id="g209"><defs
         id="defs211"><rect
           height="14.063"
           width="55.313999"
           y="77.375"
           x="141.09399"
           id="SVGID_33_" /></defs><clipPath
         id="SVGID_34_"><use
           height="100%"
           width="100%"
           y="0"
           x="0"
           style="overflow:visible"
           id="use215"
           overflow="visible"
           xlink:href="#SVGID_33_" /></clipPath><polygon
         style="fill:#ffffff"
         id="polygon217"
         points="196.408,91.438 192.188,77.375 145.315,77.375 141.092,91.438 "
         clip-path="url(#SVGID_34_)" /></g></g><g
     style="opacity:0.5"
     id="g219"
     enable-background="new    "
     clip-path="url(#SVGID_4_)"><g
       id="g221"><defs
         id="defs223"><rect
           height="43.640999"
           width="43.639"
           y="77.375"
           x="132.22099"
           id="SVGID_35_" /></defs><clipPath
         id="SVGID_36_"><use
           height="100%"
           width="100%"
           y="0"
           x="0"
           style="overflow:visible"
           id="use227"
           overflow="visible"
           xlink:href="#SVGID_35_" /></clipPath><polygon
         style="fill:#ffffff"
         id="polygon229"
         points="145.31,77.375 132.218,121.016 175.859,77.375 "
         clip-path="url(#SVGID_36_)" /></g></g><g
     style="opacity:0.5"
     id="g231"
     enable-background="new    "
     clip-path="url(#SVGID_4_)"><g
       id="g233"><defs
         id="defs235"><rect
           height="44.132999"
           width="48.724998"
           y="80.116997"
           x="148.87399"
           id="SVGID_37_" /></defs><clipPath
         id="SVGID_38_"><use
           height="100%"
           width="100%"
           y="0"
           x="0"
           style="overflow:visible"
           id="use239"
           overflow="visible"
           xlink:href="#SVGID_37_" /></clipPath><polygon
         style="fill:#ffffff"
         id="polygon241"
         points="193.007,80.117 148.874,124.25 168.764,124.25 197.594,95.413 "
         clip-path="url(#SVGID_38_)" /></g></g><g
     style="opacity:0.2"
     id="g243"
     enable-background="new    "
     clip-path="url(#SVGID_4_)"><g
       id="g245"><defs
         id="defs247"><rect
           height="14.063"
           width="75"
           y="110.188"
           x="131.25"
           id="SVGID_39_" /></defs><clipPath
         id="SVGID_40_"><use
           height="100%"
           width="100%"
           y="0"
           x="0"
           style="overflow:visible"
           id="use251"
           overflow="visible"
           xlink:href="#SVGID_39_" /></clipPath><polygon
         style="fill:#750000"
         id="polygon253"
         points="135.471,110.188 131.252,124.25 206.25,124.25 202.029,110.188 "
         clip-path="url(#SVGID_40_)" /></g></g><path
     style="fill:#014463;fill-opacity:1"
     id="path255"
     d="m 206.25,128.938 -75.002,0 c -2.586,0 -4.688,-2.094 -4.688,-4.688 0,-0.456 0.066,-0.909 0.197,-1.346 L 140.82,76.029 c 0.595,-1.982 2.424,-3.342 4.491,-3.342 l 46.877,0 c 2.069,0 3.896,1.359 4.49,3.342 l 14.063,46.875 c 0.737,2.481 -0.663,5.09 -3.145,5.836 -0.435,0.131 -0.888,0.198 -1.346,0.198 m -68.696,-9.375 62.397,0 -11.252,-37.5 -39.901,0 -11.244,37.5 z"
     clip-path="url(#SVGID_4_)" /><g
     style="opacity:0.2"
     id="g257"
     enable-background="new    "
     clip-path="url(#SVGID_4_)"><g
       id="g259"><defs
         id="defs261"><rect
           height="23.438"
           width="215.625"
           y="58.625"
           x="42.188"
           id="SVGID_41_" /></defs><clipPath
         id="SVGID_42_"><use
           height="100%"
           width="100%"
           y="0"
           x="0"
           style="overflow:visible"
           id="use265"
           overflow="visible"
           xlink:href="#SVGID_41_" /></clipPath><path
         style="fill:#2c4b75"
         id="path267"
         d="m 248.438,58.625 -196.875,0 c -5.175,0 -9.375,4.2 -9.375,9.375 l 0,14.063 c 0,-5.175 4.2,-9.375 9.375,-9.375 l 196.875,0 c 3.388,0.009 6.5,1.852 8.144,4.813 0.407,-0.069 0.819,-0.112 1.231,-0.126 l 0,-9.375 c 0,-5.175 -4.203,-9.375 -9.375,-9.375"
         clip-path="url(#SVGID_42_)" /></g></g><rect
     style="fill:#9eb2cc"
     id="rect269"
     height="18.75"
     width="18.75"
     clip-path="url(#SVGID_4_)"
     y="246.125"
     x="42.188" /><rect
     style="fill:#9eb2cc"
     id="rect271"
     height="18.75"
     width="18.75"
     clip-path="url(#SVGID_4_)"
     y="246.125"
     x="239.063" /><path
     style="fill:#eef6ff"
     id="path273"
     d="m 192.188,255.5 -18.75,0 c -5.173,0 -9.375,-4.193 -9.375,-9.375 l 0,-215.625 c 0,-5.175 4.202,-9.375 9.375,-9.375 l 18.75,0 0,234.375 z"
     clip-path="url(#SVGID_4_)" /><polygon
     style="fill:#eef6ff"
     id="polygon275"
     points="257.813,208.625 192.188,264.875 192.188,11.75 257.813,68 "
     clip-path="url(#SVGID_4_)" /><path
     style="fill:#014463;fill-opacity:1"
     id="path277"
     d="m 60.938,269.563 -18.75,0 c -2.593,0 -4.688,-2.102 -4.688,-4.688 l 0,-18.75 c 0,-2.586 2.094,-4.688 4.688,-4.688 l 18.75,0 c 2.593,0 4.688,2.102 4.688,4.688 l 0,18.75 c -0.001,2.586 -2.095,4.688 -4.688,4.688 m -14.063,-9.375 9.375,0 0,-9.375 -9.375,0 0,9.375 z"
     clip-path="url(#SVGID_4_)" /><path
     style="fill:#014463;fill-opacity:1"
     id="path279"
     d="m 257.813,269.563 -18.75,0 c -2.591,0 -4.688,-2.102 -4.688,-4.688 l 0,-18.75 c 0,-2.586 2.097,-4.688 4.688,-4.688 l 18.75,0 c 2.591,0 4.688,2.102 4.688,4.688 l 0,18.75 c -10e-4,2.586 -2.098,4.688 -4.688,4.688 m -14.063,-9.375 9.375,0 0,-9.375 -9.375,0 0,9.375 z"
     clip-path="url(#SVGID_4_)" /><g
     style="opacity:0.2"
     id="g281"
     enable-background="new    "
     clip-path="url(#SVGID_4_)"><g
       id="g283"><defs
         id="defs285"><rect
           height="215.625"
           width="9.375"
           y="30.5"
           x="150"
           id="SVGID_43_" /></defs><clipPath
         id="SVGID_44_"><use
           height="100%"
           width="100%"
           y="0"
           x="0"
           style="overflow:visible"
           id="use289"
           overflow="visible"
           xlink:href="#SVGID_43_" /></clipPath><rect
         style="fill:#2c4b75"
         id="rect291"
         height="215.625"
         width="9.375"
         clip-path="url(#SVGID_44_)"
         y="30.5"
         x="150" /></g></g><path
     style="fill:#014463;fill-opacity:1"
     id="path293"
     d="m 257.813,119.563 c -2.591,0 -4.688,-2.101 -4.688,-4.688 0,-2.587 2.097,-4.688 4.688,-4.688 2.586,0 4.683,-2.101 4.688,-4.688 l 0,-18.749 c -0.005,-2.586 -2.102,-4.683 -4.688,-4.688 -2.591,0 -4.688,-2.101 -4.688,-4.688 0,-2.587 2.097,-4.688 4.688,-4.688 7.764,0.009 14.054,6.301 14.063,14.063 l 0,18.75 c -0.01,7.762 -6.3,14.059 -14.063,14.064"
     clip-path="url(#SVGID_4_)" /><path
     style="fill:#014463;fill-opacity:1"
     id="path295"
     d="m 257.813,203.938 c -2.591,0 -4.688,-2.102 -4.688,-4.688 0,-2.586 2.097,-4.688 4.688,-4.688 2.586,0 4.683,-2.102 4.688,-4.688 l 0,-18.75 c -0.005,-2.586 -2.102,-4.683 -4.688,-4.688 -2.591,0 -4.688,-2.102 -4.688,-4.688 0,-2.586 2.097,-4.688 4.688,-4.688 7.764,0.01 14.054,6.299 14.063,14.063 l 0,18.75 c -0.01,7.766 -6.3,14.06 -14.063,14.065"
     clip-path="url(#SVGID_4_)" /><path
     style="fill:#014463;fill-opacity:1"
     id="path297"
     d="m 267.188,250.813 -53.128,0 c -2.587,0 -4.688,-2.102 -4.688,-4.688 0,-2.586 2.101,-4.688 4.688,-4.688 l 53.128,0 c 7.764,-0.005 14.054,-6.299 14.063,-14.063 l 0,-178.124 c -0.009,-7.761 -6.299,-14.053 -14.063,-14.063 l -53.128,0 c -2.587,0 -4.688,-2.101 -4.688,-4.688 0,-2.587 2.101,-4.688 4.688,-4.688 l 53.128,0 c 12.937,0.014 23.424,10.501 23.438,23.438 l 0,178.125 c -0.015,12.938 -10.502,23.425 -23.438,23.439"
     clip-path="url(#SVGID_4_)" /><path
     style="fill:#014463;fill-opacity:1"
     id="path299"
     d="m 164.063,250.813 -131.25,0 C 19.876,250.799 9.389,240.312 9.375,227.375 l 0,-178.125 C 9.389,36.313 19.876,25.826 32.813,25.812 l 131.25,0 c 2.591,0 4.688,2.101 4.688,4.688 0,2.587 -2.097,4.688 -4.688,4.688 l -131.25,0 C 25.052,35.197 18.76,41.489 18.75,49.251 l 0,178.125 c 0.009,7.764 6.301,14.058 14.063,14.063 l 131.25,0 c 2.591,0 4.688,2.102 4.688,4.688 0,2.586 -2.098,4.686 -4.688,4.686"
     clip-path="url(#SVGID_4_)" /><path
     style="fill:#014463;fill-opacity:1"
     id="path301"
     d="m 164.063,222.688 -112.5,0 C 43.802,222.683 37.51,216.389 37.5,208.625 L 37.5,68 c 0.009,-7.761 6.301,-14.053 14.063,-14.063 l 112.5,0 c 2.591,0 4.688,2.101 4.688,4.688 0,2.587 -2.097,4.688 -4.688,4.688 l -112.5,0 c -2.586,0.005 -4.683,2.101 -4.688,4.688 l 0,140.625 c 0.005,2.586 2.101,4.688 4.688,4.688 l 112.5,0 c 2.591,0 4.688,2.102 4.688,4.688 0,2.586 -2.098,4.686 -4.688,4.686"
     clip-path="url(#SVGID_4_)" /><path
     style="fill:#014463;fill-opacity:1"
     id="path303"
     d="m 257.813,72.688 c -2.591,0 -4.688,-2.101 -4.688,-4.688 -0.005,-2.586 -2.102,-4.683 -4.688,-4.688 l -1.565,0 c -2.587,0 -4.688,-2.101 -4.688,-4.688 0,-2.587 2.101,-4.688 4.688,-4.688 l 1.565,0 c 7.764,0.009 14.054,6.301 14.063,14.063 0,2.587 -2.097,4.689 -4.687,4.689"
     clip-path="url(#SVGID_4_)" /><path
     style="fill:#014463;fill-opacity:1"
     id="path305"
     d="m 248.438,222.688 -1.565,0 c -2.587,0 -4.688,-2.102 -4.688,-4.688 0,-2.586 2.101,-4.688 4.688,-4.688 l 1.565,0 c 2.586,0 4.683,-2.102 4.688,-4.688 0,-2.586 2.097,-4.688 4.688,-4.688 2.591,0 4.688,2.102 4.688,4.688 -0.011,7.765 -6.301,14.059 -14.064,14.064"
     clip-path="url(#SVGID_4_)" /><g
     style="opacity:0.2"
     id="g307"
     enable-background="new    "
     clip-path="url(#SVGID_4_)"><g
       id="g309"><defs
         id="defs311"><rect
           height="23.438"
           width="28.125"
           y="232.063"
           x="164.063"
           id="SVGID_45_" /></defs><clipPath
         id="SVGID_46_"><use
           height="100%"
           width="100%"
           y="0"
           x="0"
           style="overflow:visible"
           id="use315"
           overflow="visible"
           xlink:href="#SVGID_45_" /></clipPath><path
         style="fill:#2c4b75"
         id="path317"
         d="m 164.063,232.063 0,14.063 c 0,5.182 4.202,9.375 9.375,9.375 l 18.75,0 0,-14.063 -18.75,0 c -5.173,0 -9.375,-4.194 -9.375,-9.375 z"
         clip-path="url(#SVGID_46_)" /></g></g><g
     style="opacity:0.75"
     id="g319"
     enable-background="new    "
     clip-path="url(#SVGID_4_)"><g
       id="g321"><defs
         id="defs323"><rect
           height="23.438"
           width="28.125"
           y="21.125"
           x="164.063"
           id="SVGID_47_" /></defs><clipPath
         id="SVGID_48_"><use
           height="100%"
           width="100%"
           y="0"
           x="0"
           style="overflow:visible"
           id="use327"
           overflow="visible"
           xlink:href="#SVGID_47_" /></clipPath><path
         style="fill:#ffffff"
         id="path329"
         d="m 173.438,21.125 c -5.173,0 -9.375,4.2 -9.375,9.375 l 0,14.063 c 0,-5.175 4.202,-9.375 9.375,-9.375 l 18.75,0 0,-14.063 -18.75,0 z"
         clip-path="url(#SVGID_48_)" /></g></g><g
     style="opacity:0.2"
     id="g331"
     enable-background="new    "
     clip-path="url(#SVGID_4_)"><g
       id="g333"><defs
         id="defs335"><rect
           height="75"
           width="65.625"
           y="189.875"
           x="192.188"
           id="SVGID_49_" /></defs><clipPath
         id="SVGID_50_"><use
           height="100%"
           width="100%"
           y="0"
           x="0"
           style="overflow:visible"
           id="use339"
           overflow="visible"
           xlink:href="#SVGID_49_" /></clipPath><polygon
         style="fill:#2c4b75"
         id="polygon341"
         points="192.188,264.875 257.813,208.625 257.813,189.875 192.188,246.125 "
         clip-path="url(#SVGID_50_)" /></g></g><g
     style="opacity:0.75"
     id="g343"
     enable-background="new    "
     clip-path="url(#SVGID_4_)"><g
       id="g345"><defs
         id="defs347"><rect
           height="75"
           width="65.625"
           y="11.75"
           x="192.188"
           id="SVGID_51_" /></defs><clipPath
         id="SVGID_52_"><use
           height="100%"
           width="100%"
           y="0"
           x="0"
           style="overflow:visible"
           id="use351"
           overflow="visible"
           xlink:href="#SVGID_51_" /></clipPath><polygon
         style="fill:#ffffff"
         id="polygon353"
         points="192.188,11.75 192.188,30.5 257.813,86.75 257.813,68 "
         clip-path="url(#SVGID_52_)" /></g></g><path
     style="fill:#014463;fill-opacity:1"
     id="path355"
     d="m 192.188,260.188 -18.75,0 c -7.764,-0.005 -14.054,-6.299 -14.063,-14.063 l 0,-215.625 c 0.009,-7.761 6.299,-14.053 14.063,-14.063 l 18.75,0 c 2.591,0 4.688,2.101 4.688,4.688 l 0,234.375 c -0.001,2.586 -2.098,4.688 -4.688,4.688 M 173.438,25.813 c -2.586,0.005 -4.683,2.101 -4.688,4.688 l 0,215.625 c 0.005,2.586 2.102,4.688 4.688,4.688 l 14.062,0 0,-225 -14.062,0 z"
     clip-path="url(#SVGID_4_)" /><path
     style="fill:#014463;fill-opacity:1"
     id="path357"
     d="m 192.188,269.563 c -2.586,0 -4.688,-2.097 -4.688,-4.683 l 0,-0.005 0,-253.125 c 0,-2.586 2.097,-4.688 4.688,-4.688 1.117,0 2.202,0.398 3.049,1.131 l 65.625,56.25 c 1.039,0.89 1.639,2.188 1.639,3.557 l 0,140.625 c 0,1.369 -0.6,2.669 -1.639,3.557 l -65.625,56.25 c -0.847,0.732 -1.932,1.131 -3.049,1.131 m 4.687,-247.623 0,232.746 56.25,-48.217 0,-136.313 -56.25,-48.216 z"
     clip-path="url(#SVGID_4_)" /><path
     style="fill:#014463;fill-opacity:1"
     id="path359"
     d="m 210.938,194.563 c -2.591,0 -4.688,-2.102 -4.688,-4.688 0,-2.586 2.097,-4.688 4.688,-4.688 2.586,0 4.683,-2.102 4.688,-4.688 l 0,-84.374 c -0.005,-2.586 -2.102,-4.683 -4.688,-4.688 -2.591,0 -4.688,-2.101 -4.688,-4.688 0,-2.587 2.097,-4.688 4.688,-4.688 7.764,0.009 14.054,6.301 14.063,14.063 l 0,84.376 c -0.01,7.764 -6.3,14.058 -14.063,14.063"
     clip-path="url(#SVGID_4_)" /></svg>