<svg version="1.1" viewBox="0 0 300 500" xmlns="http://www.w3.org/2000/svg">
 <g>
  <g transform="matrix(3.182 0 0 5.2023 -663.16 -1557.7)" fill="#2e8b5f" stroke-width="1px" style="font-feature-settings:normal;font-variant-caps:normal;font-variant-ligatures:normal;font-variant-numeric:normal" aria-label="(g∘f)(v) = g(f(v))">
   <path d="m229.03 331.8q-1.1491 1.9723-1.7065 3.9018-0.5574 1.9295-0.5574 3.9104t0.5574 3.9275q0.56598 1.938 1.7065 3.9018h-1.3721q-1.2863-2.0152-1.9295-3.9618-0.63458-1.9466-0.63458-3.8675 0-1.9123 0.63458-3.8504t1.9295-3.9618z" style=""/>
   <path d="m235.91 344.37c0 0.0527-0.0527 0.33369-0.22831 0.9835-0.12293 0.54443-0.26343 1.0362-0.281 1.0889-0.19318 0.56199-0.72006 1.1416-1.2469 1.405-0.35125 0.19319-0.52687 0.21075-1.0537 0.21075-0.4215 0-0.93081-0.0176-1.0538-0.0527h-0.0176c0-0.0351 0.45662-0.31612 0.45662-0.93081 0-0.4215-0.33368-0.70249-0.73762-0.70249-0.66737 0-1.124 0.57956-1.124 1.1591 0 0.1405 0.0176 0.29856 0.0878 0.42149 0.24587 0.50931 1.0362 0.77275 2.3885 0.77275 1.7387 0 3.2842-0.93081 3.7232-2.1953 0.0351-0.0702 2.0548-7.9207 2.0548-8.3246 0-0.281-0.29856-0.49175-0.57956-0.49175-0.28099 0-0.59712 0.17562-0.73762 0.40394-0.0351 0.0527-0.0703 0.0878-0.0703 0.0878-0.38637-0.45662-0.79031-0.843-1.5279-0.843-0.57956 0-1.0186 0.1405-1.5279 0.38638-0.98349 0.49174-1.7914 1.3347-2.3182 2.4412-0.35125 0.7025-0.50931 1.4401-0.50931 2.1251 0 1.5455 0.87812 2.81 2.4587 2.81 0.843 0 1.6333-0.56199 1.844-0.75518zm1.2821-5.0053-0.93081 3.6881-0.1405 0.17562c-0.42149 0.562-1.1591 1.2294-1.9319 1.2294-0.79031 0-1.0889-0.59712-1.0889-1.3874 0-0.50931 0.0702-0.843 0.29856-1.7562 0.33368-1.3172 0.54443-1.8616 0.93081-2.3709 0.35124-0.47419 0.82543-0.80787 1.282-0.91325 0.0527 0 0.1405-0.0176 0.21075-0.0176 0.86056 0 1.124 0.59712 1.3699 1.3523z" style=""/>
   <path d="m244.31 337.98q-0.68604 0-1.1577 0.48023-0.47165 0.47164-0.47165 1.1577 0 0.67745 0.47165 1.1491 0.47164 0.46307 1.1577 0.46307 0.68603 0 1.1577-0.46307 0.47164-0.47165 0.47164-1.1491 0-0.67746-0.48022-1.1577-0.47165-0.48023-1.1491-0.48023zm0-1.1062q0.54882 0 1.0548 0.21438 0.50595 0.20581 0.87469 0.60028 0.39447 0.38589 0.59171 0.87469 0.19723 0.4888 0.19723 1.0548 0 1.132-0.79751 1.9209-0.78894 0.78036-1.938 0.78036-1.1577 0-1.9295-0.77179t-0.77179-1.9295q0-1.1491 0.78894-1.9466t1.9295-0.79751z" style=""/>
   <path d="m251.9 347.97 0.15806-0.0878c0.33369-0.15806 0.61468-0.49174 0.61468-0.94837 0-0.49174-0.31612-0.73762-0.77274-0.73762-0.64981 0-1.1064 0.54444-1.1064 1.2469 0 0.79031 0.64981 1.2821 1.4752 1.2821 0.43906 0 0.86056-0.19319 1.2821-0.562 0.70249-0.66737 1.1767-1.7211 1.5982-3.6003 0.1405-0.59713 0.33368-1.5806 0.80787-4.0569l0.40393-2.1426h0.9835c1.0889 0 1.0538 0 1.1064-0.10537 0.0176-0.0527 0.12294-0.45663 0.12294-0.562 0-0.1405-0.0702-0.1405-1.1064-0.1405-0.91325 0-0.96594 0-0.96594-0.0351 0.0527-0.0527 0.38638-2.2831 0.68494-3.4598 0.0878-0.35125 0.31612-0.66738 0.66737-0.66738 0.15806 0 0.36881 0.0527 0.52687 0.10538l-0.15806 0.0878c-0.33368 0.15806-0.61468 0.49175-0.61468 0.94837 0 0.49175 0.31612 0.73762 0.77274 0.73762 0.63225 0 1.1064-0.54443 1.1064-1.2118 0-0.80788-0.7025-1.2645-1.4928-1.3172-0.64981 0-1.0362 0.22832-1.4577 0.57956-0.54444 0.47419-0.843 1.124-1.1064 2.3182-0.0702 0.26344-0.36882 1.8616-0.36882 1.8968 0 0.0176-0.33368 0.0176-0.84299 0.0176-0.93081 0-0.91325 0-0.96594 0.10537-0.0176 0.0176-0.0527 0.15806-0.0878 0.281-0.0703 0.281-0.0527 0.33369 0.0351 0.38638 0.0527 0.0351 0.10537 0.0351 0.87812 0.0351h0.82543v0.0527c-0.0702 0.0702-1.3874 7.8153-1.7914 8.9217-0.15807 0.38637-0.38638 0.73762-0.7025 0.73762-0.17563 0-0.35125-0.0702-0.50931-0.10537z" style=""/>
   <path d="m259.84 331.8h1.3721q1.2863 2.0238 1.9209 3.9618 0.64315 1.938 0.64315 3.8504 0 1.9209-0.64315 3.8675-0.63458 1.9466-1.9209 3.9618h-1.3721q1.1405-1.9638 1.6979-3.9018 0.56598-1.9466 0.56598-3.9275t-0.56598-3.9104q-0.5574-1.9295-1.6979-3.9018z" style=""/>
   <path d="m270.74 331.8q-1.1491 1.9723-1.7065 3.9018-0.55741 1.9295-0.55741 3.9104t0.55741 3.9275q0.56597 1.938 1.7065 3.9018h-1.3721q-1.2863-2.0152-1.9295-3.9618-0.63458-1.9466-0.63458-3.8675 0-1.9123 0.63458-3.8504t1.9295-3.9618z" style=""/>
   <path d="m276.39 345.32c1.1591 0 2.0372-0.75518 2.7749-2.2656 0.36881-0.72006 0.59712-1.3523 0.843-2.3534 0.22831-0.91324 0.35124-1.5455 0.35124-2.0197 0-0.64981-0.26343-1.3347-0.87812-1.3347-0.52687 0-1.0537 0.50931-1.0537 1.0537 0 0.17563 0.0702 0.33369 0.22831 0.47419 0.49175 0.43906 0.68493 0.843 0.68493 1.3874 0 0.24588-0.0351 0.43906-0.1405 0.80787-0.47418 1.7211-1.0889 2.8451-1.8089 3.3193-0.281 0.21075-0.49174 0.281-0.84299 0.281-0.52688 0-0.96594-0.281-1.1064-0.75518-0.0702-0.24588-0.0878-0.43906-0.0878-0.77275 0.0351-0.7025 0.21075-1.3699 0.86056-3.1261 0.1405-0.35125 0.26344-0.7025 0.26344-0.77275 0.0351-0.10537 0.0527-0.29856 0.0527-0.45662 0-0.843-0.66737-1.405-1.563-1.405-0.47419 0-0.79031 0.1405-1.0889 0.36882-0.61469 0.47418-1.0538 1.2469-1.2996 2.0724-0.0351 0.1405-0.0527 0.21075-0.0527 0.26344 0 0.0702 0.0703 0.12293 0.10538 0.15806h0.24587c0.33369 0 0.281 0 0.35125-0.15806 0.281-1.0538 0.79031-1.8265 1.3523-2.0197 0.10537-0.0351 0.21074-0.0527 0.28099-0.0527 0.22832 0 0.33369 0.15806 0.33369 0.43906 0 0.17563-0.0351 0.38638-0.10537 0.59712-0.0176 0.0878-0.15807 0.47419-0.281 0.843-0.52688 1.3699-0.72006 2.0197-0.82544 2.5817-0.0176 0.1405-0.0351 0.36881-0.0351 0.59712 0 1.5279 0.98349 2.248 2.4412 2.248z" style=""/>
   <path d="m282.07 331.8h1.3721q1.2863 2.0238 1.9209 3.9618 0.64316 1.938 0.64316 3.8504 0 1.9209-0.64316 3.8675-0.63458 1.9466-1.9209 3.9618h-1.3721q1.1405-1.9638 1.6979-3.9018 0.56597-1.9466 0.56597-3.9275t-0.56597-3.9104q-0.5574-1.9295-1.6979-3.9018z" style=""/>
   <path d="m250.06 359.23h10.994v1.4407h-10.994zm0 3.4988h10.994v1.4578h-10.994z" style=""/>
   <path d="m234.55 388.53c0 0.0527-0.0527 0.33369-0.22831 0.9835-0.12294 0.54443-0.26344 1.0362-0.281 1.0889-0.19319 0.562-0.72006 1.1416-1.2469 1.405-0.35125 0.19319-0.52687 0.21075-1.0538 0.21075-0.4215 0-0.93081-0.0176-1.0537-0.0527h-0.0176c0-0.0351 0.45663-0.31613 0.45663-0.93081 0-0.4215-0.33369-0.7025-0.73762-0.7025-0.66738 0-1.124 0.57956-1.124 1.1591 0 0.1405 0.0176 0.29856 0.0878 0.4215 0.24588 0.50931 1.0362 0.77275 2.3885 0.77275 1.7387 0 3.2842-0.93081 3.7232-2.1953 0.0351-0.0702 2.0548-7.9206 2.0548-8.3246 0-0.281-0.29856-0.49175-0.57956-0.49175s-0.59712 0.17563-0.73762 0.40394c-0.0351 0.0527-0.0702 0.0878-0.0702 0.0878-0.38637-0.45662-0.79031-0.84299-1.5279-0.84299-0.57956 0-1.0186 0.1405-1.5279 0.38637-0.9835 0.49175-1.7914 1.3347-2.3182 2.4412-0.35125 0.70249-0.50931 1.4401-0.50931 2.125 0 1.5455 0.87812 2.81 2.4587 2.81 0.84299 0 1.6333-0.562 1.844-0.75519zm1.2821-5.0053-0.93081 3.6881-0.1405 0.17563c-0.4215 0.56199-1.1591 1.2294-1.9319 1.2294-0.79031 0-1.0889-0.59713-1.0889-1.3874 0-0.50931 0.0703-0.84299 0.29856-1.7562 0.33369-1.3172 0.54444-1.8616 0.93081-2.3709 0.35125-0.47418 0.82544-0.80787 1.2821-0.91324 0.0527 0 0.1405-0.0176 0.21075-0.0176 0.86056 0 1.124 0.59712 1.3699 1.3523z" style=""/>
   <path d="m242.91 375.96q-1.1491 1.9723-1.7065 3.9018-0.55741 1.9295-0.55741 3.9104 0 1.9809 0.55741 3.9275 0.56597 1.938 1.7065 3.9018h-1.3721q-1.2863-2.0152-1.9295-3.9618-0.63458-1.9466-0.63458-3.8675 0-1.9123 0.63458-3.8504t1.9295-3.9618z" style=""/>
   <path d="m246.4 392.13 0.15806-0.0878c0.33369-0.15806 0.61469-0.49175 0.61469-0.94837 0-0.49175-0.31613-0.73762-0.77275-0.73762-0.64981 0-1.1064 0.54443-1.1064 1.2469 0 0.79031 0.64981 1.2821 1.4752 1.2821 0.43906 0 0.86056-0.19319 1.2821-0.562 0.70249-0.66737 1.1767-1.7211 1.5982-3.6003 0.1405-0.59712 0.33368-1.5806 0.80787-4.0569l0.40393-2.1426h0.9835c1.0889 0 1.0538 0 1.1064-0.10537 0.0176-0.0527 0.12294-0.45662 0.12294-0.562 0-0.1405-0.0702-0.1405-1.1064-0.1405-0.91325 0-0.96594 0-0.96594-0.0351 0.0527-0.0527 0.38638-2.2831 0.68494-3.4598 0.0878-0.35125 0.31612-0.66737 0.66737-0.66737 0.15806 0 0.36881 0.0527 0.52687 0.10537l-0.15806 0.0878c-0.33368 0.15807-0.61468 0.49175-0.61468 0.94838 0 0.49174 0.31612 0.73762 0.77274 0.73762 0.63225 0 1.1064-0.54444 1.1064-1.2118 0-0.80787-0.7025-1.2645-1.4928-1.3172-0.64981 0-1.0362 0.22831-1.4577 0.57956-0.54444 0.47418-0.843 1.124-1.1064 2.3182-0.0702 0.26343-0.36881 1.8616-0.36881 1.8967 0 0.0176-0.33369 0.0176-0.843 0.0176-0.93081 0-0.91325 0-0.96593 0.10538-0.0176 0.0176-0.0527 0.15806-0.0878 0.281-0.0702 0.28099-0.0527 0.33368 0.0351 0.38637 0.0527 0.0351 0.10537 0.0351 0.87812 0.0351h0.82543v0.0527c-0.0703 0.0702-1.3874 7.8153-1.7914 8.9217-0.15807 0.38638-0.38638 0.73763-0.7025 0.73763-0.17563 0-0.35125-0.0702-0.50931-0.10538z" style=""/>
   <path d="m258.38 375.96q-1.1491 1.9723-1.7065 3.9018t-0.5574 3.9104q0 1.9809 0.5574 3.9275 0.56598 1.938 1.7065 3.9018h-1.3721q-1.2863-2.0152-1.9295-3.9618-0.63458-1.9466-0.63458-3.8675 0-1.9123 0.63458-3.8504t1.9295-3.9618z" style=""/>
   <path d="m264.03 389.48c1.1591 0 2.0372-0.75518 2.7749-2.2656 0.36881-0.72006 0.59712-1.3523 0.84299-2.3534 0.22832-0.91325 0.35125-1.5455 0.35125-2.0197 0-0.64981-0.26343-1.3348-0.87812-1.3348-0.52687 0-1.0537 0.50931-1.0537 1.0538 0 0.17562 0.0702 0.33369 0.22831 0.47418 0.49175 0.43907 0.68493 0.843 0.68493 1.3874 0 0.24587-0.0351 0.43906-0.1405 0.80787-0.47418 1.7211-1.0889 2.8451-1.8089 3.3193-0.281 0.21075-0.49174 0.28099-0.84299 0.28099-0.52688 0-0.96594-0.28099-1.1064-0.75518-0.0703-0.24587-0.0878-0.43906-0.0878-0.77275 0.0351-0.70249 0.21075-1.3699 0.86056-3.1261 0.1405-0.35125 0.26344-0.70249 0.26344-0.77274 0.0351-0.10538 0.0527-0.29857 0.0527-0.45663 0-0.84299-0.66737-1.405-1.563-1.405-0.47419 0-0.79031 0.1405-1.0889 0.36881-0.61469 0.47418-1.0538 1.2469-1.2996 2.0724-0.0351 0.14049-0.0527 0.21074-0.0527 0.26343 0 0.0702 0.0702 0.12294 0.10538 0.15806h0.24587c0.33369 0 0.281 0 0.35125-0.15806 0.281-1.0537 0.79031-1.8265 1.3523-2.0197 0.10538-0.0351 0.21075-0.0527 0.281-0.0527 0.22832 0 0.33369 0.15806 0.33369 0.43906 0 0.17562-0.0351 0.38637-0.10537 0.59712-0.0176 0.0878-0.15807 0.47418-0.281 0.843-0.52688 1.3699-0.72006 2.0197-0.82544 2.5817-0.0176 0.1405-0.0351 0.36881-0.0351 0.59712 0 1.5279 0.98349 2.248 2.4412 2.248z" style=""/>
   <path d="m269.71 375.96h1.3721q1.2863 2.0238 1.9209 3.9618 0.64315 1.938 0.64315 3.8504 0 1.9209-0.64315 3.8675-0.63458 1.9466-1.9209 3.9618h-1.3721q1.1405-1.9638 1.6979-3.9018 0.56598-1.9466 0.56598-3.9275 0-1.9809-0.56598-3.9104-0.5574-1.9295-1.6979-3.9018z" style=""/>
   <path d="m276.57 375.96h1.3721q1.2863 2.0238 1.9209 3.9618 0.64316 1.938 0.64316 3.8504 0 1.9209-0.64316 3.8675-0.63458 1.9466-1.9209 3.9618h-1.3721q1.1405-1.9638 1.6979-3.9018 0.56598-1.9466 0.56598-3.9275 0-1.9809-0.56598-3.9104-0.5574-1.9295-1.6979-3.9018z" style=""/>
  </g>
 </g>
 <g>
  <g transform="matrix(3.0856 0 0 4.444 -638.94 -1401.6)" fill="#2e8b5f" stroke-width="1px" style="font-feature-settings:normal;font-variant-caps:normal;font-variant-ligatures:normal;font-variant-numeric:normal" aria-label="composition">
   <path d="m215.35 343c-0.0527 0-0.10538 0.0527-0.21075 0.17563-0.68493 0.7903-1.6157 1.2996-2.7046 1.4577-0.1405 0.0176-0.35125 0.0351-0.54443 0.0351-0.562 0-0.82543-0.14049-1.0889-0.42149-0.31612-0.281-0.45662-0.64981-0.45662-1.2118 0-0.35125 0.0702-0.79031 0.19319-1.3172 0.36881-1.563 0.68493-2.2831 1.2996-2.8978 0.24587-0.24587 0.47418-0.4215 0.75518-0.54443 0.36881-0.19319 0.59712-0.24587 1.001-0.24587 0.77275 0 1.0713 0.24587 1.0713 0.29856l-0.0176 0.0176c-0.0176 0-0.10537 0.0351-0.19318 0.0878-0.38637 0.17562-0.63225 0.57956-0.63225 0.98349 0 0.43906 0.281 0.70249 0.72006 0.70249 0.68493 0 1.1767-0.50931 1.1767-1.2294 0-0.56199-0.36881-1.0713-0.98349-1.3347-0.33369-0.12293-0.73762-0.19318-1.1416-0.19318-0.10537 0-0.22831 0-0.33368 0.0176-1.7387 0.19318-3.4246 1.5455-4.1096 3.3017-0.22831 0.57955-0.33369 1.0889-0.33369 1.6509 0 0.57955 0.10538 1.001 0.33369 1.4401 0.43905 0.91324 1.3347 1.5455 2.6168 1.5455 0.22831 0 0.49175-0.0176 0.68493-0.0351 1.0713-0.15806 2.0197-0.562 2.7573-1.2294 0.19318-0.17562 0.54443-0.52687 0.54443-0.6498 0-0.0878-0.29856-0.40394-0.40393-0.40394z" style=""/>
   <path d="m220.88 337.38c-0.82543 0.0878-1.7387 0.49174-2.4763 1.0713-0.89568 0.75518-1.7036 1.967-1.9143 3.1963-0.0351 0.19319-0.0527 0.47419-0.0527 0.73762 0 0.1405 0 0.281 0.0176 0.38637 0.22831 1.4577 1.2294 2.5465 2.9154 2.5465 1.6157 0 3.4071-1.124 4.2852-2.8275 0.36881-0.7025 0.54443-1.1767 0.54443-2.0724 0-1.7035-0.9308-2.7573-2.3709-3.0207-0.1405-0.0176-0.45662-0.0176-0.70249-0.0176zm-2.9154 5.6375c0-0.47419 0.10537-1.0537 0.35125-1.9494 0.26343-0.96593 0.52687-1.5279 0.94836-2.0372 0.52687-0.63225 1.282-1.0186 1.9494-1.0186 0.98349 0 1.4401 0.66737 1.4401 1.7036 0 0.21075 0 0.43906-0.0176 0.54443-0.1405 0.79031-0.4215 1.844-0.63225 2.3709-0.40393 0.96592-1.1064 1.6684-1.9143 1.9318-0.21075 0.0702-0.43906 0.10537-0.63224 0.10537-0.87812 0-1.4928-0.63224-1.4928-1.6508z" style=""/>
   <path d="m226.24 345.32c0.29856 0 0.61468-0.17562 0.75518-0.47418 0.0527-0.10538 0.17562-0.52687 0.66737-2.4763l0.57956-2.3534 0.12293-0.21075c0.59712-1.0186 1.2645-1.563 2.0899-1.7387 0.1405-0.0351 0.24587-0.0351 0.45662-0.0351 0.6498 0 0.86055 0.3688 0.86055 1.0362 0 0.22831-0.0176 0.49175-0.0527 0.66737l-0.63225 2.5641c-0.47418 1.844-0.59712 2.3182-0.59712 2.5114 0 0.0702 0.0351 0.10538 0.0527 0.15806 0.0878 0.22831 0.281 0.35125 0.56199 0.35125 0.29856 0 0.61469-0.17562 0.75518-0.47418 0.0527-0.10538 0.17563-0.52687 0.66737-2.4763l0.57956-2.3534 0.12294-0.21075c0.59711-1.0186 1.2645-1.563 2.0899-1.7387 0.1405-0.0351 0.24588-0.0351 0.45662-0.0351 0.64981 0 0.86056 0.3688 0.86056 1.0362 0 0.22831-0.0176 0.49175-0.0527 0.66737-0.1405 0.73762-0.45662 1.7387-0.98349 3.1261-0.21075 0.56199-0.24587 0.57955-0.24587 0.98349 0 0.38637 0.21075 0.7903 0.42149 1.0362 0.281 0.24588 0.64981 0.4215 1.1416 0.4215 0.33369 0 0.47419-0.0176 0.75518-0.15806 0.79031-0.43906 1.3523-1.2469 1.6509-2.3007 0.0351-0.12293 0.0702-0.21074 0.0702-0.26343 0-0.15806-0.10537-0.1405-0.35124-0.1405-0.31613 0-0.31613 0-0.38638 0.26343-0.33368 1.1942-0.94836 1.967-1.5982 1.967-0.26343 0-0.33368-0.10537-0.35124-0.42149 0-0.31612 0.0527-0.54443 0.31612-1.2469 0.50931-1.405 0.84299-2.4412 0.96593-3.1085 0.0351-0.17562 0.0527-0.43906 0.0527-0.66737 0-1.2469-0.87811-1.8616-2.125-1.8616-0.38637 0-0.75518 0.0703-1.1064 0.19318-0.562 0.22831-1.0537 0.57956-1.5104 1.124l-0.1405 0.17562-0.0176-0.0527c-0.22831-0.94837-0.89567-1.4401-2.0548-1.4401-1.1591 0-1.8616 0.47418-2.4763 1.124l-0.19318 0.19318c-0.0176 0-0.0176-0.0176-0.0176-0.0351 0-0.0527-0.12294-0.36881-0.19319-0.49175-0.26343-0.47418-0.80787-0.7903-1.5455-0.7903-0.43906 0-0.64981 0.1405-0.93081 0.42149-0.31612 0.29856-0.54443 0.75518-0.77274 1.4226-0.10537 0.281-0.24587 0.82543-0.24587 0.87812 0 0.0527 0.0702 0.12293 0.10537 0.15806h0.24587c0.33369 0 0.281 0 0.35125-0.15806 0.31612-1.2118 0.52687-1.7036 0.84299-1.9494 0.10538-0.0702 0.22831-0.12294 0.35125-0.12294 0.31612 0 0.43906 0.26344 0.43906 0.63225 0 0.1405-0.0176 0.29856-0.0527 0.47418 0 0.0878-0.31612 1.3699-0.68493 2.8275-0.54443 2.1602-0.66737 2.687-0.66737 2.8802 0 0.31612 0.29856 0.49174 0.59712 0.49174z" style=""/>
   <path d="m240.29 340.25h0.24588c0.33368 0 0.28099 0 0.35124-0.15806 0.31613-1.2118 0.52687-1.7036 0.843-1.9494 0.10537-0.0878 0.22831-0.12294 0.35124-0.12294 0.36881 0 0.43906 0.31613 0.43906 0.72006 0 0.0702 0 0.15806-0.0176 0.24587-0.0527 0.29856-2.0724 8.3948-2.1426 8.5353-0.0702 0.15806-0.15806 0.19319-0.68493 0.21075h-0.35124l-0.0703 0.0527c-0.0351 0.0527-0.15806 0.45662-0.15806 0.56199 0 0.0878 0.0702 0.1405 0.12293 0.19319h0.1405c0.33369-0.0351 0.9308-0.0351 1.563-0.0351 0.63224 0 1.2996 0.0351 1.8792 0.0351 0.24587 0 0.26343-0.0702 0.33368-0.33369 0.0878-0.35124 0.0527-0.33368-0.0527-0.47418h-0.43905c-0.49175-0.0176-0.79031 0.0176-0.79031-0.17562 0-0.0176 0.72006-3.0207 0.75518-3.0558 0 0 0.4215 0.50931 0.86056 0.70249 0.24587 0.0878 0.35124 0.10538 0.68493 0.10538 0.33368 0 0.52687-0.0176 0.84299-0.10538 1.3523-0.42149 2.5992-1.6684 3.1788-3.2139 0.21075-0.61468 0.33368-1.2118 0.33368-1.7914 0-1.5279-0.80786-2.5114-2.0021-2.7924-0.10538-0.0176-0.26344-0.0351-0.43906-0.0351s-0.33368 0.0176-0.43906 0.0351c-0.66737 0.15806-1.1416 0.47418-1.6333 0.93081l-0.17563 0.15806c-0.21075-0.64981-0.7903-1.124-1.686-1.124-0.43906 0-0.64981 0.1405-0.9308 0.42149-0.31613 0.31612-0.562 0.77275-0.79031 1.4752-0.10537 0.31612-0.22831 0.77274-0.22831 0.82543 0 0.0527 0.0703 0.12293 0.10537 0.15806zm6.7088-0.82543c0 0.47418-0.0703 0.87812-0.31612 1.8616-0.24587 1.0186-0.40393 1.5104-0.6498 1.967-0.40394 0.80786-1.0537 1.4225-1.8265 1.4225-0.43905 0-0.82543-0.26343-1.0713-0.72005-0.0702-0.12294-0.19318-0.49175-0.22831-0.61468 0-0.0527 0.0878-0.4215 0.45662-1.9319 0.26344-1.0362 0.49175-1.8967 0.49175-1.9318 0.0176-0.0176 0.0702-0.10538 0.1405-0.17563 0.52687-0.70249 1.1416-1.1416 1.7211-1.2645 0.0527 0 0.1405-0.0176 0.21075-0.0176 0.79031 0 1.0713 0.57956 1.0713 1.405z" style=""/>
   <path d="m253.67 337.38c-0.82543 0.0878-1.7387 0.49174-2.4763 1.0713-0.89568 0.75518-1.7035 1.967-1.9143 3.1963-0.0351 0.19319-0.0527 0.47419-0.0527 0.73762 0 0.1405 0 0.281 0.0176 0.38637 0.22831 1.4577 1.2294 2.5465 2.9154 2.5465 1.6157 0 3.4071-1.124 4.2852-2.8275 0.36881-0.7025 0.54443-1.1767 0.54443-2.0724 0-1.7035-0.9308-2.7573-2.3709-3.0207-0.1405-0.0176-0.45662-0.0176-0.7025-0.0176zm-2.9154 5.6375c0-0.47419 0.10538-1.0537 0.35125-1.9494 0.26344-0.96593 0.52687-1.5279 0.94837-2.0372 0.52687-0.63225 1.282-1.0186 1.9494-1.0186 0.98349 0 1.4401 0.66737 1.4401 1.7036 0 0.21075 0 0.43906-0.0176 0.54443-0.1405 0.79031-0.42149 1.844-0.63224 2.3709-0.40393 0.96592-1.1064 1.6684-1.9143 1.9318-0.21075 0.0702-0.43906 0.10537-0.63225 0.10537-0.87811 0-1.4928-0.63224-1.4928-1.6508z" style=""/>
   <path d="m259.21 342.32c-0.64981 0-1.1416 0.54444-1.1416 1.282 0 0.281 0.0176 0.38637 0.12293 0.61468 0.29856 0.66737 1.1591 1.0889 2.3709 1.0889 1.6333 0 2.687-0.66737 3.2315-1.7914 0.19318-0.42149 0.29856-0.68493 0.29856-1.2469-0.0176-0.24588-0.0176-0.31613-0.0527-0.45662-0.17562-0.54444-0.54443-0.98349-1.1064-1.2294-0.24587-0.12293-0.40393-0.15806-1.0537-0.29856-0.63224-0.1405-0.72005-0.15806-0.89568-0.31612-0.17562-0.15806-0.26343-0.31612-0.26343-0.56199 0-0.82543 0.73762-1.3874 1.6333-1.3874 0.72005 0 1.2645 0.36881 1.2645 0.45662 0 0.0176 0 0.0176-0.0351 0.0176-0.0176 0-0.0878 0.0351-0.15806 0.0702-0.31612 0.15806-0.52687 0.49174-0.52687 0.84299 0 0.36881 0.26343 0.59712 0.63224 0.59712 0.59712 0 0.96593-0.47419 0.96593-1.1064 0-0.12294 0-0.24587-0.0351-0.33368-0.22831-0.79031-0.94836-1.1942-2.0548-1.1942-1.001 0-1.7562 0.35124-2.248 0.91324-0.40393 0.43906-0.72005 1.0362-0.72005 1.7738 0 0.7025 0.29856 1.1416 0.72005 1.4401 0.38638 0.26344 0.54444 0.26344 1.1942 0.40394 0.59712 0.12293 0.7025 0.1405 0.87812 0.24587 0.33368 0.15806 0.57956 0.4215 0.57956 0.84299 0 0.26344-0.10538 0.54443-0.26344 0.80787-0.36881 0.57956-0.94836 0.86055-1.8792 0.86055-0.56199 0-1.001-0.0878-1.3347-0.26343-0.10538-0.0527-0.29856-0.19319-0.31613-0.22831-0.0176-0.0176 0.0176-0.0351 0.0702-0.0527 0.0527 0 0.15806-0.0527 0.24588-0.0878 0.38637-0.19319 0.61468-0.61468 0.61468-1.001 0-0.4215-0.281-0.7025-0.73762-0.7025z" style=""/>
   <path d="m268.6 334.59c0 0.45662 0.31613 0.75518 0.73762 0.75518 0.57956 0 1.124-0.57956 1.124-1.0889 0-0.43906-0.33368-0.73762-0.75518-0.73762-0.57956 0-1.1064 0.52687-1.1064 1.0713zm-0.40393 10.731c1.2294 0 2.0548-1.3523 2.4236-2.4763 0.0351-0.10537 0.0527-0.17562 0.0527-0.22831 0-0.17562-0.0878-0.17562-0.35125-0.17562-0.31612 0-0.31612 0-0.38637 0.281-0.281 0.94836-0.70249 1.5982-1.2118 1.844-0.12294 0.0702-0.31612 0.10537-0.43906 0.10537-0.22831 0-0.29856-0.17562-0.29856-0.43905 0-0.15806 0.0351-0.33369 0.0878-0.562 0.0176-0.0527 1.5806-4.215 1.5982-4.2852 0.0527-0.17562 0.0878-0.35124 0.0878-0.52687 0-0.9308-0.70249-1.4928-1.6157-1.4928-0.40393 0-0.72005 0.1405-1.0186 0.36881-0.562 0.38637-1.0537 1.1942-1.3347 2.1075-0.0351 0.12293-0.0527 0.19318-0.0527 0.24587 0 0.0702 0.0702 0.12293 0.10537 0.15806h0.24587c0.33369 0 0.281 0 0.35125-0.15806 0.17562-0.7025 0.47418-1.282 0.82543-1.6509 0.26343-0.281 0.50931-0.40393 0.80786-0.40393h0.0351c0.22831 0 0.29856 0.15806 0.29856 0.42149 0 0.17562-0.0176 0.40393-0.0878 0.63225-0.0176 0.0702-1.5982 4.2676-1.6157 4.3379-0.0351 0.10537-0.0351 0.24587-0.0351 0.40393 0 0.91324 0.61468 1.4928 1.5279 1.4928z" style=""/>
   <path d="m271.89 338.37h0.89568c0.84299 0 0.89567 0 0.89567 0.0351-0.0176 0.0176-0.29856 1.1416-0.63224 2.4938l-0.61468 2.4587v0.31612c0 0.29856 0 0.33369 0.0351 0.47419 0.21075 0.68493 0.80787 1.1767 1.686 1.1767 0.56199 0 1.0186-0.21075 1.3874-0.49174 0.562-0.4215 1.2294-1.2645 1.4928-2.0372 0.0351-0.0878 0.0703-0.15806 0.0703-0.21075 0-0.12294-0.12294-0.1405-0.35125-0.1405-0.281 0-0.29856 0.0176-0.35124 0.15806-0.0702 0.17562-0.21075 0.47418-0.31613 0.64981-0.45662 0.7903-1.0362 1.2996-1.5982 1.405-0.0878 0.0176-0.15806 0.0176-0.21075 0.0176-0.38637 0-0.47418-0.33368-0.47418-0.73761 0-0.0878 0-0.17563 0.0176-0.26344 0.0176-0.12293 0.26344-1.124 0.66737-2.7573l0.63225-2.5465h1.8792c0.0702-0.0702 0.22831-0.40393 0.22831-0.61468 0-0.0878-0.0702-0.1405-0.12293-0.19319h-0.89568c-0.82543 0-0.87812 0-0.87812-0.0351 0 0 0.68493-2.5992 0.68493-2.8627 0-0.31612-0.26343-0.50931-0.56199-0.52687-0.40393 0-0.68493 0.21075-0.80787 0.49174-0.0527 0.10538-0.1405 0.43906-0.42149 1.5279l-0.33369 1.405h-0.9308c-1.0186 0-1.001 0-1.0537 0.10538-0.0351 0.0351-0.1405 0.43905-0.1405 0.52687 0 0.0878 0.0702 0.12293 0.12294 0.17562z" style=""/>
   <path d="m281.02 334.59c0 0.45662 0.31612 0.75518 0.73762 0.75518 0.57955 0 1.124-0.57956 1.124-1.0889 0-0.43906-0.33369-0.73762-0.75518-0.73762-0.57956 0-1.1064 0.52687-1.1064 1.0713zm-0.40393 10.731c1.2294 0 2.0548-1.3523 2.4236-2.4763 0.0351-0.10537 0.0527-0.17562 0.0527-0.22831 0-0.17562-0.0878-0.17562-0.35124-0.17562-0.31612 0-0.31612 0-0.38637 0.281-0.281 0.94836-0.7025 1.5982-1.2118 1.844-0.12294 0.0702-0.31613 0.10537-0.43906 0.10537-0.22831 0-0.29856-0.17562-0.29856-0.43905 0-0.15806 0.0351-0.33369 0.0878-0.562 0.0176-0.0527 1.5806-4.215 1.5982-4.2852 0.0527-0.17562 0.0878-0.35124 0.0878-0.52687 0-0.9308-0.70249-1.4928-1.6157-1.4928-0.40394 0-0.72006 0.1405-1.0186 0.36881-0.56199 0.38637-1.0537 1.1942-1.3347 2.1075-0.0351 0.12293-0.0527 0.19318-0.0527 0.24587 0 0.0702 0.0703 0.12293 0.10537 0.15806h0.24588c0.33368 0 0.28099 0 0.35124-0.15806 0.17563-0.7025 0.47419-1.282 0.82543-1.6509 0.26344-0.281 0.50931-0.40393 0.80787-0.40393h0.0351c0.22831 0 0.29856 0.15806 0.29856 0.42149 0 0.17562-0.0176 0.40393-0.0878 0.63225-0.0176 0.0702-1.5982 4.2676-1.6157 4.3379-0.0351 0.10537-0.0351 0.24587-0.0351 0.40393 0 0.91324 0.61468 1.4928 1.5279 1.4928z" style=""/>
   <path d="m288.9 337.38c-0.82543 0.0878-1.7387 0.49174-2.4763 1.0713-0.89568 0.75518-1.7036 1.967-1.9143 3.1963-0.0351 0.19319-0.0527 0.47419-0.0527 0.73762 0 0.1405 0 0.281 0.0176 0.38637 0.22831 1.4577 1.2294 2.5465 2.9154 2.5465 1.6157 0 3.4071-1.124 4.2852-2.8275 0.36881-0.7025 0.54443-1.1767 0.54443-2.0724 0-1.7035-0.9308-2.7573-2.3709-3.0207-0.14049-0.0176-0.45662-0.0176-0.70249-0.0176zm-2.9154 5.6375c0-0.47419 0.10538-1.0537 0.35125-1.9494 0.26343-0.96593 0.52687-1.5279 0.94836-2.0372 0.52687-0.63225 1.282-1.0186 1.9494-1.0186 0.98349 0 1.4401 0.66737 1.4401 1.7036 0 0.21075 0 0.43906-0.0176 0.54443-0.1405 0.79031-0.42149 1.844-0.63224 2.3709-0.40394 0.96592-1.1064 1.6684-1.9143 1.9318-0.21074 0.0702-0.43905 0.10537-0.63224 0.10537-0.87812 0-1.4928-0.63224-1.4928-1.6508z" style=""/>
   <path d="m294.26 345.32c0.29856 0 0.61469-0.17562 0.75518-0.47418 0.0527-0.10538 0.17563-0.52687 0.66737-2.4763l0.57956-2.3534 0.12294-0.21075c0.59711-1.0186 1.2645-1.563 2.0899-1.7387 0.1405-0.0351 0.24588-0.0351 0.45662-0.0351 0.64981 0 0.86056 0.3688 0.86056 1.0362 0 0.22831-0.0176 0.49175-0.0527 0.66737-0.1405 0.73762-0.45662 1.7387-0.98349 3.1261-0.21075 0.56199-0.24587 0.57955-0.24587 0.98349 0 0.38637 0.21075 0.7903 0.42149 1.0362 0.281 0.24588 0.64981 0.4215 1.1416 0.4215 0.33369 0 0.47419-0.0176 0.75518-0.15806 0.79031-0.43906 1.3523-1.2469 1.6509-2.3007 0.0351-0.12293 0.0702-0.21074 0.0702-0.26343 0-0.15806-0.10537-0.1405-0.35124-0.1405-0.281 0-0.31613 0.0176-0.35125 0.1405-0.24587 0.91324-0.80787 2.0899-1.686 2.0899-0.24588 0-0.29856-0.15806-0.29856-0.45662 0-0.31612 0.0527-0.54443 0.31612-1.2469 0.50931-1.3523 0.84299-2.406 0.96593-3.0734 0.0351-0.17562 0.0527-0.43906 0.0527-0.66737 0-1.2469-0.87811-1.8616-2.125-1.8616-1.124 0-1.8265 0.49174-2.4412 1.124l-0.19319 0.19318c-0.0176 0-0.0176-0.0176-0.0176-0.0351 0-0.0527-0.12294-0.36881-0.19319-0.49175-0.26343-0.45662-0.77274-0.7903-1.4928-0.7903-0.12294 0-0.22831 0.0176-0.29856 0.0351-0.86056 0.19319-1.3523 1.282-1.6157 2.3182-0.0527 0.17562-0.0878 0.35125-0.0878 0.36881 0 0.0527 0.0703 0.12293 0.10538 0.15806h0.24587c0.26343 0 0.29856-0.0176 0.33368-0.10538 0-0.0176 0.0527-0.19318 0.10538-0.3688 0.10537-0.4215 0.26343-0.89568 0.36881-1.1064 0.19318-0.38637 0.38637-0.64981 0.73761-0.64981 0.31612 0 0.4215 0.29856 0.4215 0.68493 0 0.1405 0 0.31613-0.0176 0.40394-0.10538 0.61468-1.3699 5.3214-1.3699 5.7253 0 0.31612 0.29855 0.49174 0.59711 0.49174z" style=""/>
  </g>
 </g>
 <g transform="translate(0 -622.52)">
  <g transform="matrix(3.0856 0 0 4.444 -638.86 -836.05)" fill="#2e8b5f" stroke-width="1px" style="font-feature-settings:normal;font-variant-caps:normal;font-variant-ligatures:normal;font-variant-numeric:normal" aria-label="Function">
   <path d="m223.34 345.09c0.94837 0 1.9319 0 2.6519 0.0351h0.29855c0.10538-0.10538 0.0878-0.0527 0.17563-0.33369 0.0878-0.36881 0.0527-0.35125-0.0703-0.47418h-0.43906c-0.72005 0-1.3172-0.0351-1.4577-0.10538-0.0702-0.0176-0.10538-0.0702-0.10538-0.14049 0-0.0351 0.24588-1.0537 0.562-2.2831l0.56199-2.2304h0.96593c1.0713 0 1.2118 0.0176 1.4752 0.10537 0.31612 0.0878 0.43905 0.24587 0.43905 0.64981 0 0.21075-0.0351 0.49174-0.12293 0.84299-0.0878 0.33368-0.0703 0.35125 0.0702 0.45662h0.21074c0.24588 0 0.31613-0.0176 0.35125-0.12294 0.0351-0.0878 1.1416-4.5486 1.1416-4.6189 0-0.0702-0.0702-0.1405-0.12293-0.17562h-0.21075c-0.40394 0-0.33369 0.0527-0.4215 0.38637-0.17562 0.66737-0.33368 1.0186-0.61468 1.2645-0.19318 0.19318-0.43906 0.29856-0.84299 0.36881-0.15806 0.0176-0.35125 0.0176-1.1591 0.0351h-0.96593l0.56199-2.2655c0.31612-1.2469 0.57956-2.2831 0.59712-2.3007 0.0351-0.0878 0.0878-0.12294 0.17562-0.15806 0.0878-0.0176 0.24588-0.0176 1.4752-0.0351 1.967 0 2.3534 0.0176 2.8627 0.22831 0.56199 0.22831 0.80787 0.66737 0.80787 1.5982 0 0.29856-0.0176 0.63225-0.0703 1.0186-0.0176 0.21075-0.0351 0.31612-0.0351 0.38637 0 0.10537 0.0351 0.10537 0.12294 0.17562h0.21075c0.24587 0 0.31612-0.0176 0.35124-0.12293 0.0176-0.0527 0.47419-3.7759 0.47419-3.8988 0-0.0878-0.0702-0.1405-0.12294-0.19319h-9.4661c-0.12294 0.0702-0.10538 0.0878-0.17563 0.36881-0.0878 0.31612-0.0527 0.31612 0.0703 0.43906h0.54443c0.47419 0.0176 0.843 0.0527 0.93081 0.0878 0.0527 0 0.0703 0.0527 0.0703 0.12294 0 0.10537-2.4236 9.7295-2.4763 9.8525-0.0703 0.12294-0.15806 0.17563-0.33369 0.21075-0.19318 0.0176-0.6498 0.0527-1.0537 0.0527-0.45662 0-0.45662 0-0.54443 0.36881-0.0351 0.1405-0.0527 0.21075-0.0527 0.24587 0 0.0351 0.0176 0.0527 0.0351 0.0878 0.0351 0.0702 0.0527 0.0878 0.26344 0.0878 0.73761 0 1.4752-0.0176 2.406-0.0176z" style=""/>
   <path d="m239.51 337.56c-0.22831 0-0.45662 0.10538-0.63225 0.26344-0.17562 0.17562-0.15806 0.0878-0.87811 2.968-0.35125 1.4401-0.64981 2.6344-0.66737 2.6695-0.0351 0.0878-0.29856 0.4215-0.43906 0.562-0.36881 0.38637-0.72005 0.63224-1.3347 0.63224-0.7903 0-0.98349-0.56199-0.98349-1.3699 0-0.1405 0-0.26343 0.0176-0.40393 0.10537-0.68493 0.29856-1.3523 0.86055-2.8627 0.281-0.73762 0.31612-0.87812 0.31612-1.1767 0-0.86055-0.63224-1.4752-1.6157-1.4752-0.52687 0-0.89568 0.22831-1.2645 0.56199-0.43906 0.4215-0.86055 1.1416-1.0889 1.9143-0.0351 0.12293-0.0527 0.19318-0.0527 0.24587 0 0.0702 0.0702 0.12293 0.10537 0.15806h0.24588c0.33368 0 0.28099 0 0.35124-0.15806 0.19319-0.73762 0.49175-1.3172 0.86056-1.686 0.26343-0.26343 0.49174-0.3688 0.77274-0.3688h0.0878c0.21075 0 0.24587 0.12293 0.24587 0.43905 0 0.36881-0.0176 0.45662-0.38637 1.4401-0.50931 1.3699-0.70249 1.967-0.80787 2.5817-0.0351 0.22831-0.0351 0.29856-0.0351 0.6498 0 0.31612 0 0.4215 0.0176 0.54443 0.12294 0.61469 0.4215 1.0362 0.89568 1.3172 0.36881 0.19318 0.89568 0.31612 1.3699 0.31612 0.80787 0 1.3347-0.38637 1.7914-0.80787 0.10537-0.10537 0.21075-0.19318 0.21075-0.19318 0.26343 0.57956 0.77274 0.98349 1.5982 0.98349 0.24587 0 0.281 0 0.4215-0.0351 0.66736-0.22831 1.1416-0.96592 1.5104-2.406 0.0351-0.1405 0.0527-0.21075 0.0527-0.26344 0-0.15806-0.0703-0.15806-0.33368-0.15806-0.281 0-0.31612 0.0176-0.35125 0.1405-0.19318 0.73762-0.31612 1.124-0.45662 1.4226-0.19318 0.42149-0.42149 0.63224-0.68493 0.66736-0.40393 0-0.49174-0.31612-0.49174-0.73761 0-0.0878 0-0.19319 0.0176-0.281 0 0 1.3347-5.339 1.3347-5.5848 0-0.33368-0.28099-0.50931-0.57955-0.50931z" style=""/>
   <path d="m243.32 345.32c0.29856 0 0.61468-0.17562 0.75518-0.47418 0.0527-0.10538 0.17562-0.52687 0.66737-2.4763l0.57955-2.3534 0.12294-0.21075c0.59712-1.0186 1.2645-1.563 2.0899-1.7387 0.1405-0.0351 0.24587-0.0351 0.45662-0.0351 0.6498 0 0.86055 0.3688 0.86055 1.0362 0 0.22831-0.0176 0.49175-0.0527 0.66737-0.14049 0.73762-0.45662 1.7387-0.98349 3.1261-0.21074 0.56199-0.24587 0.57955-0.24587 0.98349 0 0.38637 0.21075 0.7903 0.4215 1.0362 0.28099 0.24588 0.6498 0.4215 1.1416 0.4215 0.33368 0 0.47418-0.0176 0.75518-0.15806 0.7903-0.43906 1.3523-1.2469 1.6509-2.3007 0.0351-0.12293 0.0703-0.21074 0.0703-0.26343 0-0.15806-0.10538-0.1405-0.35125-0.1405-0.281 0-0.31612 0.0176-0.35125 0.1405-0.24587 0.91324-0.80786 2.0899-1.686 2.0899-0.24587 0-0.29856-0.15806-0.29856-0.45662 0-0.31612 0.0527-0.54443 0.31612-1.2469 0.50931-1.3523 0.84299-2.406 0.96593-3.0734 0.0351-0.17562 0.0527-0.43906 0.0527-0.66737 0-1.2469-0.87812-1.8616-2.125-1.8616-1.124 0-1.8265 0.49174-2.4412 1.124l-0.19318 0.19318c-0.0176 0-0.0176-0.0176-0.0176-0.0351 0-0.0527-0.12293-0.36881-0.19318-0.49175-0.26344-0.45662-0.77274-0.7903-1.4928-0.7903-0.12294 0-0.22831 0.0176-0.29856 0.0351-0.86055 0.19319-1.3523 1.282-1.6157 2.3182-0.0527 0.17562-0.0878 0.35125-0.0878 0.36881 0 0.0527 0.0702 0.12293 0.10537 0.15806h0.24587c0.26344 0 0.29856-0.0176 0.33369-0.10538 0-0.0176 0.0527-0.19318 0.10537-0.3688 0.10537-0.4215 0.26344-0.89568 0.36881-1.1064 0.19319-0.38637 0.38637-0.64981 0.73762-0.64981 0.31612 0 0.42149 0.29856 0.42149 0.68493 0 0.1405 0 0.31613-0.0176 0.40394-0.10537 0.61468-1.3699 5.3214-1.3699 5.7253 0 0.31612 0.29856 0.49174 0.59712 0.49174z" style=""/>
   <path d="m259.09 343c-0.0527 0-0.10538 0.0527-0.21075 0.17563-0.68493 0.7903-1.6157 1.2996-2.7046 1.4577-0.1405 0.0176-0.35125 0.0351-0.54443 0.0351-0.562 0-0.82543-0.14049-1.0889-0.42149-0.31612-0.281-0.45662-0.64981-0.45662-1.2118 0-0.35125 0.0703-0.79031 0.19319-1.3172 0.36881-1.563 0.68493-2.2831 1.2996-2.8978 0.24587-0.24587 0.47418-0.4215 0.75518-0.54443 0.36881-0.19319 0.59712-0.24587 1.001-0.24587 0.77275 0 1.0713 0.24587 1.0713 0.29856l-0.0176 0.0176c-0.0176 0-0.10537 0.0351-0.19318 0.0878-0.38637 0.17562-0.63225 0.57956-0.63225 0.98349 0 0.43906 0.281 0.70249 0.72006 0.70249 0.68493 0 1.1767-0.50931 1.1767-1.2294 0-0.56199-0.36881-1.0713-0.9835-1.3347-0.33368-0.12293-0.73761-0.19318-1.1416-0.19318-0.10537 0-0.22831 0-0.33368 0.0176-1.7387 0.19318-3.4246 1.5455-4.1096 3.3017-0.22832 0.57955-0.33369 1.0889-0.33369 1.6509 0 0.57955 0.10537 1.001 0.33369 1.4401 0.43905 0.91324 1.3347 1.5455 2.6168 1.5455 0.22831 0 0.49175-0.0176 0.68493-0.0351 1.0713-0.15806 2.0197-0.562 2.7573-1.2294 0.19318-0.17562 0.54443-0.52687 0.54443-0.6498 0-0.0878-0.29856-0.40394-0.40393-0.40394z" style=""/>
   <path d="m260.03 338.37h0.89568c0.84299 0 0.89568 0 0.89568 0.0351-0.0176 0.0176-0.29856 1.1416-0.63225 2.4938l-0.61468 2.4587v0.31612c0 0.29856 0 0.33369 0.0351 0.47419 0.21075 0.68493 0.80787 1.1767 1.686 1.1767 0.56199 0 1.0186-0.21075 1.3874-0.49174 0.562-0.4215 1.2294-1.2645 1.4928-2.0372 0.0351-0.0878 0.0703-0.15806 0.0703-0.21075 0-0.12294-0.12294-0.1405-0.35125-0.1405-0.28099 0-0.29856 0.0176-0.35124 0.15806-0.0702 0.17562-0.21075 0.47418-0.31613 0.64981-0.45662 0.7903-1.0362 1.2996-1.5982 1.405-0.0878 0.0176-0.15806 0.0176-0.21075 0.0176-0.38637 0-0.47418-0.33368-0.47418-0.73761 0-0.0878 0-0.17563 0.0176-0.26344 0.0176-0.12293 0.26344-1.124 0.66737-2.7573l0.63225-2.5465h1.8792c0.0702-0.0702 0.22831-0.40393 0.22831-0.61468 0-0.0878-0.0702-0.1405-0.12294-0.19319h-0.89568c-0.82543 0-0.87812 0-0.87812-0.0351 0 0 0.68493-2.5992 0.68493-2.8627 0-0.31612-0.26343-0.50931-0.56199-0.52687-0.40393 0-0.68493 0.21075-0.80787 0.49174-0.0527 0.10538-0.1405 0.43906-0.42149 1.5279l-0.33369 1.405h-0.9308c-1.0186 0-1.001 0-1.0537 0.10538-0.0351 0.0351-0.1405 0.43905-0.1405 0.52687 0 0.0878 0.0702 0.12293 0.12294 0.17562z" style=""/>
   <path d="m269.15 334.59c0 0.45662 0.31612 0.75518 0.73761 0.75518 0.57956 0 1.124-0.57956 1.124-1.0889 0-0.43906-0.33368-0.73762-0.75518-0.73762-0.57955 0-1.1064 0.52687-1.1064 1.0713zm-0.40394 10.731c1.2294 0 2.0548-1.3523 2.4236-2.4763 0.0351-0.10537 0.0527-0.17562 0.0527-0.22831 0-0.17562-0.0878-0.17562-0.35125-0.17562-0.31612 0-0.31612 0-0.38637 0.281-0.28099 0.94836-0.70249 1.5982-1.2118 1.844-0.12293 0.0702-0.31612 0.10537-0.43906 0.10537-0.22831 0-0.29856-0.17562-0.29856-0.43905 0-0.15806 0.0351-0.33369 0.0878-0.562 0.0176-0.0527 1.5806-4.215 1.5982-4.2852 0.0527-0.17562 0.0878-0.35124 0.0878-0.52687 0-0.9308-0.70249-1.4928-1.6157-1.4928-0.40394 0-0.72006 0.1405-1.0186 0.36881-0.56199 0.38637-1.0537 1.1942-1.3347 2.1075-0.0351 0.12293-0.0527 0.19318-0.0527 0.24587 0 0.0702 0.0703 0.12293 0.10537 0.15806h0.24587c0.33369 0 0.281 0 0.35125-0.15806 0.17562-0.7025 0.47418-1.282 0.82543-1.6509 0.26343-0.281 0.50931-0.40393 0.80787-0.40393h0.0351c0.22831 0 0.29856 0.15806 0.29856 0.42149 0 0.17562-0.0176 0.40393-0.0878 0.63225-0.0176 0.0702-1.5982 4.2676-1.6157 4.3379-0.0351 0.10537-0.0351 0.24587-0.0351 0.40393 0 0.91324 0.61468 1.4928 1.5279 1.4928z" style=""/>
   <path d="m277.03 337.38c-0.82543 0.0878-1.7387 0.49174-2.4763 1.0713-0.89568 0.75518-1.7035 1.967-1.9143 3.1963-0.0351 0.19319-0.0527 0.47419-0.0527 0.73762 0 0.1405 0 0.281 0.0176 0.38637 0.22831 1.4577 1.2294 2.5465 2.9154 2.5465 1.6157 0 3.4071-1.124 4.2852-2.8275 0.36881-0.7025 0.54443-1.1767 0.54443-2.0724 0-1.7035-0.9308-2.7573-2.3709-3.0207-0.1405-0.0176-0.45663-0.0176-0.7025-0.0176zm-2.9154 5.6375c0-0.47419 0.10538-1.0537 0.35125-1.9494 0.26343-0.96593 0.52687-1.5279 0.94837-2.0372 0.52687-0.63225 1.282-1.0186 1.9494-1.0186 0.98349 0 1.4401 0.66737 1.4401 1.7036 0 0.21075 0 0.43906-0.0176 0.54443-0.1405 0.79031-0.42149 1.844-0.63224 2.3709-0.40393 0.96592-1.1064 1.6684-1.9143 1.9318-0.21074 0.0702-0.43905 0.10537-0.63224 0.10537-0.87812 0-1.4928-0.63224-1.4928-1.6508z" style=""/>
   <path d="m282.39 345.32c0.29855 0 0.61468-0.17562 0.75518-0.47418 0.0527-0.10538 0.17562-0.52687 0.66736-2.4763l0.57956-2.3534 0.12294-0.21075c0.59712-1.0186 1.2645-1.563 2.0899-1.7387 0.1405-0.0351 0.24588-0.0351 0.45662-0.0351 0.64981 0 0.86056 0.3688 0.86056 1.0362 0 0.22831-0.0176 0.49175-0.0527 0.66737-0.1405 0.73762-0.45662 1.7387-0.98349 3.1261-0.21075 0.56199-0.24587 0.57955-0.24587 0.98349 0 0.38637 0.21075 0.7903 0.42149 1.0362 0.281 0.24588 0.64981 0.4215 1.1416 0.4215 0.33368 0 0.47418-0.0176 0.75518-0.15806 0.7903-0.43906 1.3523-1.2469 1.6508-2.3007 0.0351-0.12293 0.0702-0.21074 0.0702-0.26343 0-0.15806-0.10537-0.1405-0.35124-0.1405-0.281 0-0.31613 0.0176-0.35125 0.1405-0.24587 0.91324-0.80787 2.0899-1.686 2.0899-0.24588 0-0.29856-0.15806-0.29856-0.45662 0-0.31612 0.0527-0.54443 0.31612-1.2469 0.50931-1.3523 0.84299-2.406 0.96593-3.0734 0.0351-0.17562 0.0527-0.43906 0.0527-0.66737 0-1.2469-0.87811-1.8616-2.125-1.8616-1.124 0-1.8265 0.49174-2.4412 1.124l-0.19319 0.19318c-0.0176 0-0.0176-0.0176-0.0176-0.0351 0-0.0527-0.12293-0.36881-0.19318-0.49175-0.26344-0.45662-0.77275-0.7903-1.4928-0.7903-0.12294 0-0.22831 0.0176-0.29856 0.0351-0.86056 0.19319-1.3523 1.282-1.6157 2.3182-0.0527 0.17562-0.0878 0.35125-0.0878 0.36881 0 0.0527 0.0703 0.12293 0.10538 0.15806h0.24587c0.26343 0 0.29856-0.0176 0.33368-0.10538 0-0.0176 0.0527-0.19318 0.10538-0.3688 0.10537-0.4215 0.26343-0.89568 0.36881-1.1064 0.19318-0.38637 0.38637-0.64981 0.73761-0.64981 0.31613 0 0.4215 0.29856 0.4215 0.68493 0 0.1405 0 0.31613-0.0176 0.40394-0.10538 0.61468-1.3699 5.3214-1.3699 5.7253 0 0.31612 0.29856 0.49174 0.59712 0.49174z" style=""/>
  </g>
  <flowRoot transform="scale(.26458)" fill="#000000" font-family="sans-serif" font-size="16px" letter-spacing="0px" stroke-width="1px" word-spacing="0px" style="font-feature-settings:normal;font-variant-caps:normal;font-variant-ligatures:normal;font-variant-numeric:normal;line-height:125%" xml:space="preserve"><flowRegion><rect x="64.323" y="311.36" width="201.83" height="214.92"/></flowRegion><flowPara/></flowRoot>
  <text x="44.533913" y="101.64184" fill="#000000" font-family="sans-serif" font-size="4.2333px" letter-spacing="0px" stroke-width=".26458px" word-spacing="0px" style="font-feature-settings:normal;font-variant-caps:normal;font-variant-ligatures:normal;font-variant-numeric:normal;line-height:125%" xml:space="preserve"><tspan x="44.533913" y="105.38734" stroke-width=".26458px"/></text>
 </g>
</svg>
