<svg width="500" height="500" version="1.1" viewBox="0 0 132.29 132.29" xmlns="http://www.w3.org/2000/svg">
 <defs>
  <clipPath id="clipPath1821">
   <rect x="24.875" y="62.361" width="14.935" height="11.788" fill="#61dafb"/>
  </clipPath>
 </defs>
 <g fill="#61dafb">
  <polygon transform="matrix(.20466 .047924 -.047924 .20466 7.548 -1.8275)" points=""/>
  <polygon transform="matrix(.20466 .047924 -.047924 .20466 7.548 -1.8275)" points=""/>
 </g>
 <g transform="translate(0 -164.71)">
  <g transform="translate(-5.5565 -.066945)">
   <path transform="translate(0 164.71)" d="m129.7 90.785c1.5575-6.6514-5.296-14.905-17.151-21.805 5.995-12.326 7.1102-22.988 2.1152-27.655-1.1482-1.0892-2.6173-1.8218-4.316-2.2196l-1.0687 4.5639c0.94142 0.22045 1.6555 0.58196 2.2085 1.0784 2.4095 2.2481 2.1937 8.6092-0.57847 16.207-0.67561 1.8711-1.5184 3.8109-2.4527 5.7725-3.7812-1.9217-7.9836-3.7045-12.473-5.274-1.8763-4.4331-3.9364-8.5423-6.1175-12.227 8.1239-4.6388 15.182-6.5696 19.439-5.5728l1.0687-4.5639c-5.6281-1.3179-13.935 0.9681-23.014 6.182-5.8297-8.6619-12.268-14.357-17.896-15.675l-1.0687 4.5639c4.2364 0.99203 9.7286 5.8402 14.958 13.563-3.5697 2.3375-7.2352 5.0844-10.844 8.2331-4.7403-0.59191-9.2973-0.86026-13.543-0.79675 0.0085-2.1568 0.12548-4.2234 0.32558-6.1843 0.86882-8.0432 3.4792-13.844 6.6207-14.813 0.70024-0.22461 1.5367-0.20143 2.4782 0.01902l1.0687-4.5639c-1.7191-0.40256-3.3608-0.3984-4.8936 0.06299-6.5272 1.9688-10.237 12.002-10.308 25.672-13.65 0.94853-23.41 5.2906-24.962 11.921-1.5575 6.6514 5.2959 14.905 17.151 21.805-5.995 12.326-7.1102 22.988-2.1152 27.655 1.1482 1.0892 2.6173 1.8218 4.3364 2.2244 5.6281 1.3179 13.935-0.96809 23.014-6.182 5.8297 8.6619 12.268 14.357 17.896 15.675 1.7191 0.40256 3.3608 0.3984 4.8936-0.063 6.5272-1.9688 10.237-12.002 10.308-25.672 13.604-0.93765 23.369-5.3002 24.922-11.931zm-23.45-19.89c-1.3755 2.4628-2.9543 4.9642-4.6559 7.437-0.4557-1.8337-0.95234-3.6771-1.5308-5.5396-0.55803-1.8577-1.187-3.6889-1.8256-5.4791 2.8055 1.1103 5.4847 2.299 8.0124 3.5817zm-14.477 19.601c-2.2433 2.3891-4.494 4.6253-6.7629 6.6629-3.1117-0.44802-6.2356-1.0284-9.3464-1.7569-3.0903-0.72366-6.1471-1.5906-9.1185-2.5454-1.1284-2.8332-2.1774-5.8205-3.1316-8.9367-0.92759-3.0452-1.7023-6.0979-2.3495-9.1422 1.9111-2.4453 3.9858-4.8522 6.1486-7.1738 2.2433-2.3891 4.494-4.6253 6.7629-6.6629 3.1117 0.44802 6.2356 1.0284 9.3464 1.7569 3.0903 0.72366 6.1471 1.5906 9.1185 2.5454 1.1284 2.8332 2.1774 5.8205 3.1316 8.9367 0.92759 3.0452 1.7023 6.0979 2.3495 9.1422-1.9315 2.4405-3.9858 4.8522-6.1486 7.1738zm7.2334-1.1126c0.46296 3.0012 0.7622 5.9641 0.91689 8.8067-2.8344 0.0271-5.788-0.08168-8.8153-0.33722 1.3718-1.341 2.7533-2.723 4.0829-4.1603 1.3248-1.4168 2.593-2.8685 3.8155-4.3092zm-25.866 16.977c-1.4432-2.4104-2.8338-5.0459-4.1559-7.8813 1.8227 0.51318 3.6912 1.0155 5.5945 1.4612 1.9238 0.45049 3.8367 0.85526 5.723 1.189-2.4026 1.9632-4.8187 3.7073-7.1616 5.2311zm-12.404-15.62c-2.8055-1.1103-5.4847-2.299-8.0123-3.5817 1.3755-2.4628 2.9543-4.9642 4.6559-7.437 0.4557 1.8337 0.95233 3.6771 1.5308 5.5396 0.5785 1.8625 1.187 3.6889 1.8256 5.4791zm25.097-39.048c1.4432 2.4104 2.8338 5.0459 4.1559 7.8813-1.8227-0.51318-3.6912-1.0155-5.5945-1.4612-1.9238-0.45049-3.8367-0.85525-5.723-1.189 2.4026-1.9632 4.8187-3.7073 7.1616-5.2311zm-17.967 8.5079c-1.3718 1.341-2.7533 2.723-4.0829 4.1603-1.3248 1.4168-2.5882 2.848-3.8107 4.2888-0.46296-3.0012-0.7622-5.9641-0.91689-8.8067 2.8296-0.0066 5.7832 0.10215 8.8105 0.35768zm-24.522 21.286c-6.5212-4.7868-10.259-9.9365-9.5066-13.15s6.3928-6.1883 14.356-7.5617c1.9374-0.34508 4.0193-0.56996 6.153-0.73954 0.22723 4.2844 0.78451 8.8189 1.6862 13.542-2.8797 3.816-5.367 7.6159-7.4476 11.338-1.8775-1.1089-3.6384-2.2552-5.2416-3.4294zm4.1622 31.824c-2.4095-2.2481-2.1937-8.6092 0.57847-16.207 0.67561-1.8711 1.5184-3.8109 2.4527-5.7725 3.7812 1.9217 7.9836 3.7045 12.473 5.274 1.8763 4.4331 3.9364 8.5423 6.1175 12.227-8.1239 4.6388-15.182 6.5696-19.439 5.5728-0.91616-0.23613-1.6507-0.60243-2.1832-1.0941zm52.197-4.2273c-0.86882 8.0432-3.4792 13.844-6.6207 14.813-0.70024 0.22461-1.5367 0.20143-2.4782-0.019-4.2364-0.99203-9.7286-5.8402-14.958-13.563 3.5697-2.3375 7.2352-5.0844 10.844-8.2331 4.7403 0.59191 9.2973 0.86026 13.543 0.79675-0.0133 2.1773-0.1098 4.2487-0.33037 6.2047zm11.076-11.806c-1.9374 0.34508-4.0193 0.56996-6.153 0.73954-0.22724-4.2844-0.78451-8.8189-1.6862-13.542 2.8797-3.816 5.367-7.6159 7.4476-11.338 1.8775 1.1089 3.6384 2.2552 5.262 3.4342 6.5212 4.7868 10.259 9.9365 9.5066 13.15-0.77288 3.2083-6.4132 6.1835-14.377 7.5569z" fill="#61dafb" stroke-width=".21019"/>
   <circle transform="rotate(13.179 -712.89 82.354)" cx="95.403" cy="58.822" r="9.6058" fill="#61dafb" stroke-width=".21019"/>
   <path transform="translate(0 164.71)" d="m18.653 6.4693c-0.07456 0.040147-0.08603 2.8447-0.08603 24.702v24.656l0.13191 0.72838c0.72265 4.009 3.2347 7.3813 6.9512 9.3313 1.9557 1.0266 4.0376 1.5657 6.3375 1.6518 3.4813 0.12618 6.7275-1.1241 9.2567-3.5673 1.9844-1.9213 3.2519-4.3015 3.7623-7.0716 0.17779-0.95206 0.18926-1.3306 0.04015-1.3306-0.06309 0-0.55632 0.06309-1.1069 0.13765-1.2904 0.17779-2.2425 0.28103-2.3629 0.25809-0.07456-0.01721-0.0057-0.13191 0.2925-0.48176 0.21794-0.25235 1.6231-1.9156 3.1315-3.6993 1.5084-1.7837 2.7816-3.2806 2.8275-3.3265 0.06882-0.07456 0.08029 0.44162 0.05735 3.8713-0.02294 4.3645-0.01721 4.3301-0.41294 5.9647-1.4281 5.936-6.1081 10.484-12.004 11.666-2.145 0.43015-4.1237 0.41294-6.435-0.05162-4.4506-0.8947-8.3162-3.4526-10.702-7.0831-1.2159-1.8468-1.9328-3.7107-2.3572-6.1368-0.09176-0.53911-0.10323-2.0246-0.1147-25.356-0.01721-19.615-0.03441-24.799-0.09177-24.839-1.8247-4.8013 4.8219-4.6253 2.8848-0.022941z"/>
   <path transform="translate(0 164.71)" d="m129.7 90.785c1.5575-6.6514-5.296-14.905-17.151-21.805 5.995-12.326 7.1102-22.988 2.1152-27.655-1.1482-1.0892-2.6173-1.8218-4.316-2.2196l-1.0687 4.5639c0.94142 0.22045 1.6555 0.58196 2.2085 1.0784 2.4095 2.2481 2.1937 8.6092-0.57847 16.207-0.67561 1.8711-1.5184 3.8109-2.4527 5.7725-3.7812-1.9217-7.9836-3.7045-12.473-5.274-1.8763-4.4331-3.9364-8.5423-6.1175-12.227 8.1239-4.6388 15.182-6.5696 19.439-5.5728l1.0687-4.5639c-5.6281-1.3179-13.935 0.9681-23.014 6.182-5.8297-8.6619-12.268-14.357-17.896-15.675l-1.0687 4.5639c4.2364 0.99203 9.7286 5.8402 14.958 13.563-3.5697 2.3375-7.2352 5.0844-10.844 8.2331-4.7403-0.59191-9.2973-0.86026-13.543-0.79675 0.0085-2.1568 0.12548-4.2234 0.32558-6.1843 0.86882-8.0432 3.4792-13.844 6.6207-14.813 0.70024-0.22461 1.5367-0.20143 2.4782 0.01902l1.0687-4.5639c-1.7191-0.40256-3.3608-0.3984-4.8936 0.06299-6.5272 1.9688-10.237 12.002-10.308 25.672-13.65 0.94853-23.41 5.2906-24.962 11.921-1.5575 6.6514 5.2959 14.905 17.151 21.805-5.995 12.326-7.1102 22.988-2.1152 27.655 1.1482 1.0892 2.6173 1.8218 4.3364 2.2244 5.6281 1.3179 13.935-0.96809 23.014-6.182 5.8297 8.6619 12.268 14.357 17.896 15.675 1.7191 0.40256 3.3608 0.3984 4.8936-0.063 6.5272-1.9688 10.237-12.002 10.308-25.672 13.604-0.93765 23.369-5.3002 24.922-11.931zm-23.45-19.89c-1.3755 2.4628-2.9543 4.9642-4.6559 7.437-0.4557-1.8337-0.95234-3.6771-1.5308-5.5396-0.55803-1.8577-1.187-3.6889-1.8256-5.4791 2.8055 1.1103 5.4847 2.299 8.0124 3.5817zm-14.477 19.601c-2.2433 2.3891-4.494 4.6253-6.7629 6.6629-3.1117-0.44802-6.2356-1.0284-9.3464-1.7569-3.0903-0.72365-6.1471-1.5906-9.1185-2.5454-1.1284-2.8332-2.1774-5.8205-3.1316-8.9367-0.92759-3.0452-1.7023-6.0979-2.3495-9.1422 1.9111-2.4453 3.9858-4.8522 6.1486-7.1738 2.2433-2.3891 4.494-4.6253 6.7629-6.6629 3.1117 0.44802 6.2356 1.0284 9.3464 1.7569 3.0903 0.72366 6.1471 1.5906 9.1185 2.5454 1.1284 2.8332 2.1774 5.8205 3.1316 8.9367 0.92759 3.0452 1.7023 6.0979 2.3495 9.1422-1.9315 2.4405-3.9858 4.8522-6.1486 7.1738zm7.2334-1.1126c0.46296 3.0012 0.7622 5.9641 0.91688 8.8067-2.8344 0.0271-5.788-0.08168-8.8153-0.33722 1.3718-1.341 2.7533-2.723 4.0829-4.1603 1.3248-1.4168 2.593-2.8685 3.8155-4.3092zm-25.866 16.977c-1.4432-2.4104-2.8338-5.0459-4.1559-7.8813 1.8227 0.51318 3.6912 1.0155 5.5945 1.4612 1.9238 0.45049 3.8367 0.85526 5.723 1.189-2.4026 1.9632-4.8187 3.7073-7.1617 5.2311zm-12.404-15.62c-2.8055-1.1103-5.4847-2.299-8.0123-3.5817 1.3755-2.4628 2.9543-4.9642 4.6559-7.437 0.4557 1.8337 0.95233 3.6771 1.5308 5.5396 0.5785 1.8625 1.187 3.6889 1.8256 5.4791zm25.097-39.048c1.4432 2.4104 2.8338 5.0459 4.1559 7.8813-1.8227-0.51318-3.6912-1.0155-5.5945-1.4612-1.9238-0.45049-3.8367-0.85525-5.723-1.189 2.4026-1.9632 4.8187-3.7073 7.1616-5.2311zm-17.967 8.5079c-1.3718 1.341-2.7533 2.723-4.0829 4.1603-1.3248 1.4168-2.5882 2.848-3.8107 4.2888-0.46296-3.0012-0.7622-5.9641-0.91689-8.8067 2.8296-0.0066 5.7832 0.10215 8.8105 0.35768zm-24.522 21.286c-6.5212-4.7868-10.259-9.9365-9.5066-13.15 0.75241-3.2131 6.3928-6.1883 14.356-7.5617 1.9374-0.34508 4.0193-0.56996 6.153-0.73954 0.22723 4.2845 0.78451 8.8189 1.6862 13.542-2.8797 3.816-5.367 7.6159-7.4476 11.338-1.8775-1.1089-3.6384-2.2552-5.2416-3.4294zm4.1622 31.824c-2.4095-2.2481-2.1937-8.6092 0.57847-16.207 0.67561-1.8711 1.5184-3.8109 2.4527-5.7725 3.7812 1.9217 7.9836 3.7045 12.473 5.274 1.8763 4.4331 3.9364 8.5423 6.1175 12.227-8.1239 4.6388-15.182 6.5696-19.439 5.5728-0.91616-0.23613-1.6507-0.60243-2.1832-1.0941zm52.197-4.2273c-0.86882 8.0432-3.4792 13.844-6.6206 14.813-0.70024 0.22461-1.5367 0.20143-2.4782-0.019-4.2364-0.99203-9.7286-5.8402-14.958-13.563 3.5697-2.3375 7.2352-5.0844 10.844-8.2331 4.7403 0.59191 9.2973 0.86026 13.543 0.79675-0.0133 2.1773-0.1098 4.2487-0.33037 6.2047zm11.076-11.806c-1.9374 0.34508-4.0193 0.56996-6.153 0.73954-0.22724-4.2844-0.78451-8.8189-1.6862-13.542 2.8797-3.816 5.367-7.6159 7.4476-11.338 1.8775 1.1089 3.6384 2.2552 5.262 3.4342 6.5212 4.7868 10.259 9.9365 9.5066 13.15-0.77288 3.2083-6.4132 6.1835-14.377 7.5569z" clip-path="url(#clipPath1821)" fill="#61dafb" stroke-width=".21019"/>
  </g>
 </g>
</svg>
