<?xml version="1.0" encoding="UTF-8" standalone="no"?>
<svg
   xmlns:dc="http://purl.org/dc/elements/1.1/"
   xmlns:cc="http://creativecommons.org/ns#"
   xmlns:rdf="http://www.w3.org/1999/02/22-rdf-syntax-ns#"
   xmlns:svg="http://www.w3.org/2000/svg"
   xmlns="http://www.w3.org/2000/svg"
   id="svg6"
   viewBox="0 0 320 320"
   version="1.1">
  <metadata
     id="metadata12">
    <rdf:RDF>
      <cc:Work
         rdf:about="">
        <dc:format>image/svg+xml</dc:format>
        <dc:type
           rdf:resource="http://purl.org/dc/dcmitype/StillImage" />
        <dc:title></dc:title>
      </cc:Work>
    </rdf:RDF>
  </metadata>
  <defs
     id="defs10" />
  <g
     id="g4"
     transform="translate(-53.209 -716.52)">
    <path
       id="path2"
       stroke-width=".28164"
       d="m149.23 1025.9c-0.24717-0.4484-0.41993-2.6831-0.502-6.4884-0.25161-9.6423 2.2345-19.667 6.272-27.482 4.0415-7.4567 5.5776-10.879 2.5069-19.029-1.024-2.6594-1.2158-4.3642-0.4162-3.7007 1.031 0.85583 2.5621 4.4932 3.9758 9.4464 1.5172 5.6815-0.37604 11.912-2.8999 16.992-3.2687 6.4841-4.843 12.225-5.8502 21.329-0.62396 5.6418-1.616 9.6201-2.3994 9.6201-0.17067 0-0.47983-0.308-0.68722-0.6882zm66.018-24.811c-2.3832-11.9-4.0644-20.362-9.7852-29.93-3.81-6.3317-5.7381-12.594-5.8863-19.117-0.0653-2.8992 0.57359-5.9011 1.4883-6.9857 2.6666-6.1909 6.6117-11.881 7.9252-18.474 0.74846-4.0077 0.52761-5.2556-1.8038-10.189-1.3345-1.7935-1.8604-6.7383-2.6197-6.7587-0.4328 0-0.6048 0.32533-0.7667 1.4504-0.23591 1.6393-2.2761 7.6406-4.0747 11.986-2.8716 6.9367-7.5785 13.241-13.817 18.506-6.04 3.723 2.4544 2.9504-2.7336 5.9881-2.7436 1.5756-9.1298 4.6713-10.178 4.934-0.7255 0.18172-0.84815 0.12871-0.76346-0.32981 0.0636-0.34749 1.324-1.1633 3.46-2.241 1.8474-0.93198 3.9086-2.2025 4.5805-2.8231 0.84865-0.91218 1.7814-1.131 0.15262-1.1241-5.5749 0.8194-11.81 1.095-16.652 1.2392-3.1697-1.0885-6.9197-2.7488-10.055-2.1377-1.011 0.21544-0.85913-0.70173 0.36347-2.1952 0.63344-0.77366 1.5888-2.0354 2.1231-2.8039 2.5903-3.4489 6.5221-2.869 9.0909-5.4066 1.4886-1.4831 1.7282-2.2005 0.5188-1.5533-0.77449 0.41456-1.8784 0.42901-1.8784 0.0234 0-0.50742-0.56461-0.35829-3.3185 0.87641-2.4362 1.2731-5.152 1.4853-7.7115 2.3196-0.28797 0.11522-0.71722-0.0229-1.0263-0.33315-0.48196-0.48195-0.48622-0.56412-0.0461-0.88536 0.26636-0.19474 1.6901-0.66204 3.1639-1.0383 4.5952-0.91606 8.3066-2.9318 12.52-4.5458 0.66215 0.12884 1.2542 1.8923 1.2823 3.8201 0.23719 4.9526-12.891 6.0242-11.796 9.9618 0.092 0.24207 0.90083 0.61472 1.7954 0.82797 3.4599 1.3989 6.6931 1.6463 8.9552 1.6296 4.2092-0.0335 10.061-0.65409 12.673-1.3414 0.7254-0.19077 1.5693-0.84918 2.6221-2.0457 8.2257-9.3484 13.159-16.935 17.827-27.415 1.0474-2.3513 2.0402-4.5342 2.2063-4.8504 0.28172-0.53663-0.0708-1.084-0.70973-1.0995-2.5137-0.83217-11.156-0.85228-12.175-1.8368-0.76799-0.76812-0.76699-1.0927 5e-3 -1.7589 3.5692-1.6164 12.043 0.24307 15.568 0.93743 10.642 1.5319 22.133 4.8546 29.468 6.9148 12.345 3.1574 25.146 6.393 37.072 8.1691 2.11 0.31011 2.6051 0.95962 1.5707 2.0607-0.40157 0.42742-0.91219 0.77709-1.1349 0.77709-0.64315 1.3161 2.034 2.2443 2.778 1.5488l0.63421-0.59579v6.4706c0.14371 14.923 6.8483 27.832 9.9716 44.487 0.97926 5.3573 0.97824 5.3432 0.41875 5.9029-0.44942 0.44942-0.59577 0.45646-1.3254 0.0631-1.4966-0.80542-3.2681-2.7413-3.8113-4.1653-0.82225-2.1546-1.0509-2.2082-9.9866-2.3436-13.541 1.0753-33.219-1.0199-42.397 8.0005-4.9537 5.5865 3.9085 8.5359 5.2759 14.378 0.24188 1.1825-0.83429 2.8648-2.9786 4.6553-6.5429 3.5683-14.741 9.3536-16.077-1.6059zm3.3371-63.641c1.92-1.1207 2.9248-0.26571 4.8312 0.58238 4.6134 1.6419 11.75 5.9541 15.934 6.1093 1.2028 0 1.2153-0.0112 1.0561-0.99243-0.088-0.54589-0.28584-1.4734-0.43842-2.0612-0.93179-6.6927-4.1998-12.73-4.271-18.933 0-0.65153-0.13745-1.2695-0.30543-1.3733-0.16787-0.10333-0.30521-0.51427-0.30521-0.91231 0-0.39786-0.19701-0.92033-0.4376-1.161-0.73157-0.73157-12.758-4.4389-18.19-5.6074-2.0434-0.43958-6.1702-1.6318-8.4924-2.4532-0.72396-0.25626-1.4081-0.37397-1.5203-0.26183-0.11216 0.11207 0.91788 2.3596 2.2889 4.9946 2.7663 5.3161 3.3658 7.4762 3.0405 10.958-0.23417 2.5088-2.1216 8.0785-4.4935 13.26-2.9166 6.372-3.9595 6.2804-2.3278 6.0698 4.9069-2.1872 9.17-6.3602 13.631-8.2187zm-36.018 39.285c3.9215-3.0267 7.2527-4.1228 11.756-6.1531 1.4865-0.67138 2.072-0.84591 3.3061-0.98607 1.0565-0.11996 1.1591-0.0687 1.0688 0.52542-3.8103 2.7588-6.9945 3.3879-11.456 5.2914-4.2966 1.8347-4.6751 1.9418-4.6751 1.3226zm-15.573-0.47852c-1.475-0.48984-3.2855-1.546-3.4688-2.0235-0.27685-0.72133 0.43524-0.83849 1.9176-0.31558 8.3891 1.445 18.187-2.6246 26.056-6.2106 1.9502-0.90074 2.672-1.1158 2.672-0.79632 0 0.24082-0.58412 0.73209-1.2978 1.0916-0.71385 0.35963-2.9656 1.6027-5.0044 2.7625-4.0725 2.317-8.6435 4.2771-11.714 5.0236-2.2704 0.55181-8.0238 0.84598-9.1608 0.46831zm0.15266-6.3635c-5.7006-0.76214-15.122-2.7548-18.932-4.0046-1.6087-0.52753-3.4412-0.96031-6.3274-1.4942-0.88143-0.16306-1.1962 0.25743-1.5992 2.1373-0.3948 1.2039-1.6012 1.6066-2.3349 0.95429-1.7101-1.5445-3.3985-6.6932-3.7966-11.576-0.46933-5.7631 2.0591-14.736 4.3118-15.302 0.42175-0.10585 0.84448-0.11458 0.93951-0.0186 0.0584 1.2175-0.41766 2.2088-0.42858 3.4394 0.0805 0.0806 0.95521-0.15377 1.943-0.52121 2.3717-1.3971 5.4174-3.096 6.5292-5.6894 0-0.63289-2.349-4.5996-3.6708-6.199-5.077-6.7077-7.9529-14.561-9.5818-21.399-1.7013-7.1883-1.8539-10.257-0.42711-8.5798 0.68939 0.81027 1.0743 2.0117 2.0655 6.4483 1.4252 4.7209 2.5383 9.1084 5.0294 13.277 0.42129 0.67657 3.1481 5.8253 5.0151 9.4695 1.1373 2.2202 3.7812 5.3806 4.5013 5.3806-0.237 2.5068-6.0091 7.2494-9.268 8.6561-1.1335 0.47817-2.2671 0.97376-2.5189 1.1016-1.1389 2.8965-1.7378 13.304-0.71562 15.216 0.19436 0.12049 2.0495 0.60782 4.1223 1.083 2.0732 0.4753 5.0058 1.2521 6.5174 1.7262 1.5116 0.47419 3.5041 1.0183 4.428 1.2092 0.92366 0.19091 2.71 0.67189 3.9696 1.0689 2.7118 0.85483 9.0799 1.9504 11.985 2.0619l2.0606 0.0789 2.3256-2.2832c2.7775-2.7267 4.4879-5.8978 2.664-4.939-2.9834 1.0575-6.4406 1.0533-9.398 2.4335-0.85414 0.42875-0.86989 0.47121-0.32332 0.87083 0.83216 0.60845 2.7379 0.51558 4.1448-0.20208 1.9117-0.97533 2.6847-1.218 2.8789-0.90382-0.91557 1.1746-2.4039 1.3654-3.6078 2.3891-1.7158 0.29868-12.451-0.696-13.279-1.311-0.30289-0.30287 0.60936-0.76363 1.5222-0.76884 0.45092-2e-3 2.5121-0.60429 4.5805-1.337 4.1311-1.4635 9.2588-2.7667 9.7331-2.4735 4.9123-0.57103 7.5807-5.2435 12.364-6.7601 1.9716-0.49484 1.0081 0.75529-2.9163 3.784-4.1172 3.1777-4.3589 3.4351-3.8017 4.0505 0.42141 0.46577 0.4179 0.64406-0.0344 1.7773-0.27722 0.69278-0.62467 1.2596-0.77219 1.2596-0.14751 0-1.4811 1.1495-2.9636 2.5543-1.4825 1.405-2.9614 2.6923-3.2867 2.8608-0.77934 0.40375-2.5023 0.62891-3.645 0.47615zm-17.334-6.3455c-2.3388-1.2158-10.411-2.2452-9.2681-3.6084 3.3035-1.6016 11.105-1.3194 14.006 0.38205 1.1657 0.7 1.342 1.0651 0.87218 1.8068-0.21898 0.34546-0.62057 0.35226-2.3668 0.0394-3.2073-0.57315-3.701-0.22964-0.90943 0.63284 2.358 0.72837 3.0332 1.3033 1.6501 1.405-1.3722-0.0189-2.6396-0.43815-3.9837-0.65827zm-23.845-1.8518c-1.6544-0.93413-4.0592-2.5058-5.3437-3.4925-7.3024-6.5323-16.46-15.84-19.41-25.328-0.70167-2.4077-0.63745-6.4856 0.13423-8.5158 0.94269-2.4806 2.5467-5.5346 4.0934-7.7932 1.4221-2.0772 1.7155-2.8322 0.99288-2.555-1.6427 0.63041-5.7021 1.7835-7.3426 2.0858-2.4515 0.45156-2.9091 0.20993-4.9087-2.592-1.7226-2.414-2.4342-4.0032-3.0273-6.7594-2.6459-8.8636-0.47094-7.3921 1.051-13.377 1.4567-3.4628 3.078-7.3045 4.597-10.498 4.0156-7.6813 5.3844-18.438 12.518-23.768 2.0274-1.4925 2.1188-1.5282 2.6218-1.025 0.50068 0.50068 0.2185 0.98268-1.7588 3.0036-6.4805 8.4411-7.2548 17.5-12.057 27.202-2.8695 3.425-2.4275 10.114-4.193 13.173-2.4652 6.0895 2.3147 13.458 7.0562 12.354 2.334-0.68689 4.6475-0.8484 6.8911-1.7696 0.15492-0.13166 0.45455-1.2394 0.66575-2.4616-0.28638-4.3966 4.5624-9.1017 4.96-12.191 0.16321-1.337 0.3138-1.6508 0.8272-1.7243 1.7028 0.25298 2.5128 2.9164 2.5786 4.4497 4.5831 14.788 15.348 25.33 21.718 37.398 0.51273 1.0024 0.52552 1.145 0.10087 1.145-0.26631 0-1.1615-0.69558-1.9896-1.5457-1.5492-1.5906-2.1191-1.7082-2.1191-0.4371 0 0.40121-0.3962 1.8703-0.88037 3.2648-2.7172 7.8246-3.7898 13.512-3.6457 19.33 0.12042 4.871 0.158 4.8489-4.1317 2.427zm28.811-2.6373c1.1554-0.39994 6.3717 0.30178 5.3438 0.87061-0.33596 0.1789-1.4044 0.40317-2.3746 0.49833-1.5365 0.13775-2.3436-0.0712-2.9693-1.3689zm7.2087-0.0318c-0.49788-0.36412-0.45927-0.43651 0.47604-0.89233 8.1077-2.9563 13.555-3.9184 20.946-8.7138 1.4516-0.95253 2.5164-1.1392 2.5164-0.44122-6.5264 4.8143-14.716 8.1908-21.619 10.021-1.942 0.5076-1.6654 0.50442-2.3188 0.0254zm-8.4305-6.241c1.6796-0.60931 5.2226 0.053 6.6424 1.0787-1.1259 1.663-6.5641 0.87455-6.6424-1.0787zm6.4889-0.10707c-0.58261-0.61222-0.46808-0.8222 0.57287-1.0509 1.2046-0.26451 10.039 0.14764 10.039 0.46842 0 0.48115-1.1601 0.64847-5.6446 0.81416-3.5643 0.1317-4.6698 0.0798-4.9666-0.2317zm28.794-3.741c-0.4269-0.72861-0.77625-1.7009-0.77625-2.1605 0-1.6188 2.494-5.1491 8.6069-12.184 2.7445-3.1583 4.829-4.798 4.829-3.7985 0 1.5147-10.561 19.468-11.452 19.468-0.23749 0-0.78106-0.59604-1.208-1.3245zm88.268-28.245c-0.0883-0.14409-0.24966-0.81078-0.35695-1.4816 10.734-21.751 21.116-40.212 29.884-58.727 3.6123-7.1406 9.2918-19.069 14.932-23.643 1.2856-0.90041 1.3056 0.0236 0.0324 1.5624-2.5451 3.0769-3.4062 4.9005-2.5603 5.4232 1.0012 1.5062 1.026 3.3216 2.1709 4.8433 0.67711 0.86071 4.3389 3.0845 5.5632 3.3788 1.0843 0.26046 1.0748 0.93469-0.0187 1.3881-1.9551 0.39617-2.7447-0.99358-4.5911-1.1584-0.36104 1.0007 6.8297 8.5451 10.561 11.081 5.797 3.5449 2.4194-1.4976 0.97686-2.9676-1.9613-1.9846-2.5106-2.7712-3.2892-4.711-0.98346-2.4494-0.98913-2.831-0.0415-2.831 1.2652 0 1.5578-1.9242 0.61022-4.0127-0.77984-1.7185-0.75104-2.8569 0.15678-6.2168 1.5006-5.0325 2.3788-10.331 4.3831-15.189 0.57496-1.3413 1.5629-2.2648 1.9785-1.8492 0.3816 4.7005-2.8817 21.227-4.6153 24.489-0.26267 0.42145-0.52387 1.8131-0.61539 3.2791l-0.1589 2.5468c1.5412 1.3897 2.6596 4.7382 4.6282 5.4373 0.72549-0.14103 1.6014-4.2763 1.7472-8.25 0.13916-3.7885 0.0179-4.3715-1.7268-8.3676-0.37683-0.86273-0.59622-1.8006-0.48742-2.084 0.18109-0.47183 0.26391-0.46357 0.97642 0.0959 0.42821 0.33688 1.1861 0.702 1.6842 0.81135 0.5146 0.11305 1.2973 0.68224 1.8135 1.3189 3.1822 4.1426 6.5092 7.9897 10.383 11.791 2.5218 7.9264 4.9604 15.877 6.1292 24.19 1.4935 7.2544-1.2666 9.2334-3.6185 12.817-5.5707 2.2228-13.686 0.79776-18.02-1.0484-3.65-2.188-4.7275 0.57384-8.1128 1.0463l-1.7885 0.20502c-4.8213-9.6368-17.402-12.132-22.066-18.708-0.82112-1.3285-2.3548 1.5376-5.958 11.134-3.1056 8.2717-4.969 11.979-10.053 20.001-2.7013 3.3349-6.5438 12.187-9.9521 14.432-0.24531 0.13368-0.4341 0.0136-0.579-0.0271zm-16.368-17.626c-10.612-3.2848-21.04-6.3664-30.994-11.484-11.113-5.9822-20.717-13.201-31.85-17.861-9.3985-8.6088-34.137 1.1389-40.688-9.9049-0.0859-1.8864 2.4656-0.37676 3.7282 0.32086 2.5757-8.154 4.6245-28.797 15.726-32.368 3.0149-0.77108 5.6472-1.9743 6.6816-3.0541 1.862-2.6962-1.2374-3.8846-1.0228-6.346 0.0812-0.7053 0.21987-0.80608 1.0105-0.73626 3.8128-0.85817 12.089-3.6486 15.421-6.6886 0-0.14019-0.51354-0.46941-1.141-0.73169-1.3694-0.57212-2.3633-1.4509-3.269-2.8904-3.8141-7.8041-5.4279-14.474-8.1922-22.749-1.3407-3.9993-1.4193-4.8079-1.0252-10.535 1.3677-2.7873-2.6359-9.9151-2.1255-10.843-1.7778-4.9523 1.9867-13.782 2.0112-19.717 0-2.4776 0.0949-2.9872 0.78034-4.1556 1.3994-2.0164 3.6767-3.3492 5.3268-4.8136 5.5998-5.0946 12.055-8.2022 19.696-7.6965 5.532 0.43169 12.952 1.7759 14.347 2.5987 13.889 9.8282 13.702 13.488 13.928 24.32-0.37308 4.7068 0.84991 9.7602 0.87981 14.212-0.4643 5.1784-1.9316 8.4549-4.09 12.66-0.12296 3.3194 0.64026 7.9315-0.64728 10.374-0.78712 1.4805-5.2364 6.7221-7.9085 9.3171-1.5584 1.5132-1.5119 1.0867-0.58243 5.3483 1.8538 4.7436-0.17191 6.3908-1.2774 0.92488-0.26568-1.3387-0.54752-2.4985-0.62642-2.5774-2.9057 0.94139-6.8832 16.002-9.6409 15.366-0.52648-0.32532-0.0167-1.9908 1.1417-3.737 2.5099-3.1854 6.4571-13.713 8.7732-15.066 1.0244-0.54828 3.7952-3.2763 5.4888-5.4048l1.5482-1.9454c0.0132-2.9782 0.0264-5.9566 0.0408-8.9346-1.0326-0.1562-1.6754-0.0801-1.6794 0.73293-1.3694 13.345-10.536 14.419-15.879 21.135 0 0.1552 0.73609 0.1897 1.6795 0.0784 2.1827 2.2395-4.7129 3.3163-6.0074 3.5618-4.3935 1.1914 2.4038 7.7718 3.4118 10.273 0 0.59787-0.60096 0.7919-1.1195 0.36151-2.2045-2.7782-3.5951-5.368-5.7243-8.4007-1.4396-1.1703-5.3352-1.495-5.3705 0.35141 1.5898 2.9183-1.6853 3.0703-1.4108 4.3501 1.8126 4.9154-2.2798 12.902 0.95838 17.141 3.1597-0.57701 5.4615-2.8231 9.0715-4.8128 1.2976-0.71129 2.4342-1.4145 2.5259-1.5629 0.0909-0.14826-0.11067-0.72446-0.4496-1.2804-0.70355-1.1538-0.81297-2.3849-0.2121-2.3849 1.3744 1.2027 2.3458 1.8156 3.8074 1.828 1.4847 5e-3 2.3608 0.40118 5.4049 2.4458 3.1659 2.1263 6.8793 4.0882 7.1569 3.7815-1.4619-6.0707 2.0424-14.73-0.27704-20.417-2.5949 0.17884-9.7725 9.0853-11.053 7.8523 1.445-4.0952 6.7753-6.1157 10.935-8.9645 2.398-2.3043 1.3762 2.2534 1.4466 4.2406 0.21541 6.0782 0.73815 15.461 0.98632 17.703 0.29688 1.7864-0.74264 2.3429-2.2724 1.927-1.3052-0.37434-5.9527-3.1586-8.4834-5.0822-2.1417-1.7194-4.7402-2.3179-6.5526-0.71136-4.1101 3.7016-7.9731 3.9128-11.654 7.4412 1.3817 9.5215-3.3045 24.553 1.8692 33.261 6.4092 2.5683 14.257 8.5329 20.696 12.547 3.6962 2.3001 9.2011 5.2181 9.4238 4.9954 0.0865-0.0865 2e-3 -0.89515-0.19269-1.7956-0.33228-17.705 0.1412-37.303 2.3346-53.874 0.38074-2.8395 0.52917-7.558 0.65963-20.961 0.0917-9.5128 0.28332-17.482 0.42398-17.71 0.193-0.31232 0.61624-0.0385 1.7259 1.112 3.9454 3.2718 8.66 7.4825 13.359 8.6789 12.492 3.3906 26.367 4.4493 39.091 5.2159 10.493 0.61582 11.659 0.76339 12.909 1.6343 2.2741 1.5691 3.2306 4.1425 4.537 6.1833 1.5743 2.4473 1.5247 3.1895-0.48726 7.2961-1.7869 3.521-1.616 4.8478-1.5453 8.3685-6.0256 10.257-10.781 21.767-16.407 31.177-5.9372 14.116-18.921 25.085-24.33 37.179-1.5476 1.1982-3.8041 0.15888-4.7551-0.0917zm9.6412-35.593c4.9122-3.8725 10.544-8.2275 14.352-11.494 2.184-1.8757 2.2283-1.9428 2.4224-3.6644 0.0165-0.95484 1.4036-5.548 0.71586-5.5708-2.2175 0.27909-4.0398 2.5823-5.8341 3.1566-0.45957-0.79893-0.50565-2.6152-0.0954-3.8029 0.24912-0.72309 0.40272-1.365 0.34133-1.4263-0.11954-0.1196-1.7226 1.998-3.7652 4.9736-3.7449 5.4559-8.9214 15.4-8.9214 17.139 0 1.0188 0.37724 1.3494 0.78567 0.68863zm-62.075-55.254c11.265-5.4392 21.169-17.427 21.64-25.659-0.0748-1.2757 0.44778-1.6152 1.1621-0.75438 2.5451 2.5913 4.6017-0.5171 4.4869-3.3991-1.1401 0.27436-2.698 2.5606-3.6404 1.9014-1.17-0.85537-0.53706-2.1344 1.903-3.846 1.9736-1.3845 2.5292-2.4532 2.9324-5.6409 0.32021-6.6048-4.1232-2.6703-2.0039 0.61856 1.3964 2.8422-1.2517 3.9952-2.5204 1.601-0.9343-1.9721 1.7972-7.2592 3.7796-8.4919 0.68863-0.36853 0.93303 0.12465 1.5064 3.0388 0.70852 3.6015 1.4555 2.2339 0.91622-1.6775-0.46646-3.3828-0.83355-4.3578-1.7248-4.5816-2.2571-0.16633-4.5965 5.7011-5.5203 7.6643-1.2481 2.3266-5.2409 3.0485-5.2922 0.29981 1.654-3.4562-6.5467-7.6661-4.2043-10.698 0.25018-0.25036 4.7351-1.3165 6.4945-1.5441 3.2203-0.41634 3.4092-1.3228 0.23588-1.1322-1.5106 0.0464-8.449-0.25675-8.4806-1.2808 0-0.54612 0.19591-0.59899 2.0612-0.55643 2.2421 0.0505 2.7057-0.36229 1.2682-1.1317-1.8248-0.97656-2.8786-3.1441-1.7263-3.5508 1.9228-1.465 7.9345-1.9622 8.308-0.46133 0.32256 1.3717 0.77655 0.64716 0.77655-1.2393v-1.9086c-4.0742 0.27419-7.2313 0.52411-11.376 0.83712-1.1777-0.71316-2.4633-2.4439-3.8951-2.5165-3.8132 1.0172-8.05 1.7935-11.361 3.8366-1.2054 0.78126-2.0431 0.54982-2.9338-0.81037-1.0181-1.555-1.0206-1.9115-0.0176-2.6415 2.0576-1.9468-2.5495-3.2892-3.8661-3.3785 0.40762 1.823 2.0319 2.9245 2.4562 4.8579-0.6707 1.7272-2.3409-2.4123-3.4681-2.8735-1.8215 1.046-7.3312 5.3052-8.3801 4.3074-2.1458-0.14338-2.6116 13.411-1.9629 14.964 2.3672 1.1802 8.3234 1.9458 9.4773 4.2555 1.5872 4.599 1.2417 12.109-0.58317 16.019-1.5748 4.887 2.3443 3.768 3.2604 5.9016 0.82788 1.9815 0.31493 2.7514-0.69286 1.0399-1.1978-1.4613-3.1383-1.523-4.1364-2.8774-1.4182-2.9684 0.81538-5.6618 1.3788-8.815 0.90728-5.1843 1.2314-4.6408-2.6946-4.5183-1.0483 0.11853-4.9225 0.23907-3.8576-1.5042 0.45356-0.83177-0.23198-0.56764-0.75055-0.35223-1.8005 4.6124-0.78163 8.3947 0.8224 12.203 2.7474 6.9497 5.0266 15.355 7.7656 20.838 2.0226 4.0331 2.363 4.2761 5.9561 4.2528 2.4871 0.24595 4.69 0.16578 6.5029-0.59522zm-10.581-8.2508c-1.097-0.86283-2.3992-3.1602-2.2746-4.0128 0.84961-0.64772 1.4693 0.7656 2.3843 1.745 2.234 0.14936 6.1837-0.45617 7.655 0.28264-0.45809 1.6342-0.3576 2.1786-1.6985 2.3606-3.1794 0.42542-5.208 0.29986-6.0661-0.37526zm16.895-0.91548c-0.38508-1.5516-0.2381-7.981 0.84017-8.4486 1.7087 2.1304-0.26306 9.4687-0.84017 8.4486zm-18.31-4.6881c-2.2337-7e-3 -4.3425-3.2943-1.2919-1.9123 2.9291 0.72436 10.774 1.4674 12.619-0.27609 0.84579-0.9549 0.85443-0.7109 1.6093 0.1863 1.183 1.4058 1.0634 1.8402-0.49275 1.7888-4.0702 0.0983-8.3966 1.2286-12.444 0.21327zm21.554-3.9148c-1.6662-3.0686-0.262-3.1918 1.4668-4.5332 0.85797-0.67479 1.6049-0.60423 1.906 0.18022-0.26598 1.1486-1.3722 1.6624-1.2097 2.7143 0.32246 1.987-1.1945 3.1362-2.1632 1.6388zm-12.372-5.682c-0.98384-2.5218 7.9801 4.114 6.6587 5.6198-1.7985 0.51017-5.5434-3.697-6.6587-5.6198zm-6.9984 2.1302c0.0639-1.8587 4.7765-2.1658 4.8377-0.66452-0.69283 1.1915-3.6343 1.3243-4.8377 0.66452zm1.3389-3.6797c0.44573-1.7826 4.4478-1.2276 3.029-0.12717-0.64 0.46794-2.7632 0.55714-3.029 0.12717zm-10.626-7.8779c-0.29295-0.32376-0.53268-0.66589-0.53268-0.76013 1.6404-0.4429 3.0968-0.29668 4.8858-0.59305 0.95395-0.21541 0.66114 0.53088-0.42064 1.0723-1.7509 0.87624-3.294 0.98653-3.9325 0.28092zm15.976-2.3706-1.0884 0.2015 0.88637-0.93051c3.8401-1.4003 1.393-1.1427 5.8306-1.0199 2.1393 0.0472 3.8182 0.21267 3.8182 0.37466 0 0.47999-1.2144 1.6347-5.3657 1.9028-2.6644 0.58279-3.2591-0.68067-4.0809-0.52859zm5.7403 2.4117c-0.88877 0.27929-1.9694 0.3954-2.5536 0.27425-1.0763-0.22336-2.2902-0.7695-2.2902-1.0304 0-0.13929 0.23393-0.38416 0.51994-0.54418 0.44901-0.2512 2.7599 0.59672 2.7242 0.17331 1.3138 0.14503 2.2472 0.92342 1.5996 1.127zm-9.7297-2.9829c0-0.62231 1.5243-2.0264 2.2-2.0264 0.56903 0 0.56683 0.031-0.062 0.91678-0.92402 1.2974-2.1372 1.9275-2.1372 1.1096zm1.7304-3.4514c-0.11186-0.11199-0.19932-0.4899-0.19413-0.83978 1.9175-3.1354 12.906-5.3341 14.853-1.2217 0.26256 0.68391-0.78892 1.6543-1.7924 1.6543-3.3356-1.6793-11.954 1.1409-12.866 0.40718zm-7.5419 2.112c-0.0587-1.5054-8.7133-5.2226-9.0157-4.5692 0.14665 1.4488 0.7281 2.4587 1.3334 3.8274 1.0893-0.38219 4.0153-1.45 2.5215 0.18545l-0.69409 0.73886c1.1923 0.15782 5.8456 0.81687 5.8549-0.18245zm9.7812-27.193c-1.6058-3.0634-2.1785-4.9935-3.2064-4.3352-1.1672 1.5644 1.3979 5.7837 2.634 5.1705 0.3147-0.16841 0.70048-0.57409 0.57225-0.83532zm4.3558-4.7324c2.3138-1.7417 5.5043-0.50496 6.5612-1.7287 2.5435-2.9698 3.2279-3.6427 4.0533-3.9845 1.1365-0.47089 1.1657-1.1334 0.0687-1.56-3.8432-0.57449-14.547 2.7862-16.6 5.9098 0.45758 7.2008 3.167 2.692 5.9166 1.3635zm17.184-2.3512c0.94759 0 0.98621-0.71727 0.0725-1.3568-1.6005-0.97044-5.9219 0.85255-6.0393 2.4788 1.8914 0.85305 3.1726-1.0431 5.9661-1.122zm-109.97 119c-15.685-8.6631-5.104-23.53-2.3461-35.748 3.6786-12.997-3.3969-22.153 1.7758-37.455 1.2759-7.957 12.758-10.109 13.581-16.717 0.56794-2.3558 2.6447-3.2965 4.4297-4.5966 2.709-1.7769 6.0069-3.1964 7.903-5.3707 2.9414-3.7428 11.982-11.111 16.745-8.6157 2.3695 0.964 4.4868 2.626 5.5141 4.7806 1.0353 2.2605 1.538 9.5024 0.82691 11.909-0.54918 1.8584-1.1064 2.4429-2.3286 2.4429-0.55935 0-1.6352 0.16542-2.3907 0.36738-1.164 0.31142-1.596 0.28808-2.8291-0.15238-1.1538-0.41222-1.6908-0.45416-2.5921-0.2027-1.4022 0.39128-2.4363-0.069-3.9018-1.7386-2.3174-2.6392-3.3292-7.0989-2.4459-10.78 0.20752-0.86514 0.30493-1.6453 0.21637-1.7337-0.36517-0.36532-1.4344 0.59042-2.5144 2.2471-1.7497 2.6841-2.1486 3.0251-5.7412 4.9047-1.8341 0.95967-3.9012 2.2524-4.5932 2.8728l-1.2584 1.128 1.2213-0.17305c1.8666-0.38054 3.364-1.0121 5.1341-1.7051 1.5057 0.39979 2.9892 1.1424 4.5433 1.3061 0.54537-5e-3 1.0362 0.52965 0.74977 0.81607-0.0921 0.0921-0.79336 0.28575-1.5565 0.42829-0.76292 0.14265-2.109 0.58307-2.9912 0.97907-8.649 3.3149-20.244 10.103-23.634 18.827-1.533 11.486 2.5708 26.278-0.19072 37.117-1.6666 6.6821-6.1399 11.515-7.8447 18.169-0.38983 1.7666-0.39912 7.342-0.0124 7.9393 0.70383-0.8426 1.126-5.2542 2.1196-7.2938 0.666-1.0947 2.0274-2.4818 1.7166-0.75414-1.0481 5.012 12.751 7.7208 14.933 1.7406 1.9617-4.028 2.0328-1.8303 1.5598 0.58902-0.55634 2.8034-0.3783 4.4408 0.71562 6.5843 1.1263 1.8583 2.1316 2.3419 3.8424 3.2548-1.2649 0.23579-2.5454-0.12427-3.4237-0.63092-0.93251-0.98553-12.74-0.72332-12.76 0.323 2.2101 2.3136 12.895 2.383 16.418 0.93813 3.6458-2.8003 8.3667-5.232 11.65-6.9071 1.9416-2.086 3.704-3.5402 4.28-6.058-4.5188-0.70754-7.9298-6.9705-8.0721-10.194-4e-3 -5.4032 2.1732-1.797 2.5538 0.79807 0.26927 2.0936 1.7214 4.3755 1.7214 2.7051 0.39542-1.7639 1.2983-1.3002 1.9627-0.58728 0.72317 1.0176 2.0981 1.1675 2.9232 1.7822 0 0.50165-2.4938 1.5483-3.2417 1.3607-1.0814-0.27146-0.88449 0.26438 0.50064 1.3613 1.8375 1.4554 2.3581 1.1804 3.8113-2.0136 0.61821-1.6753 4.4282-6.4835 5.9802-5.6067 0.0273 1.6954-1.6364 5.2553-1.9742 6.931-3.3611 9.245-11.467 17.808-19.798 21.71-5.3362 1.584-16.234 1.1762-20.888-1.2776zm43.789-90.4c0.59681-1.0357 0.61375-2.0064 0.74685-3.1872l-1.3698-0.60586c-4.311-1.3326-0.88782-10.94-3.4165-11.416-2.3471 1.8777-1.7403 6.9691-1.2108 9.7477 0.24961 1.2444-0.35734 1.3546-0.84133 0.15278-0.57546-1.4292-0.49386-7.0479 0.12432-8.5564 0.29392-0.71718 0.5344-1.37 0.5344-1.4506-3.3862-0.8755-5.3075 2.8696-5.6491 5.0574-0.28365 1.937 0.31275 5.8055 1.1116 7.2102 1.004 1.7654 2.4263 3.1596 3.2234 3.1596 0.83537 0 0.84581-0.0604 0.21948-1.2716-0.64157-1.2407-0.1003-1.8819 0.63699-0.75562 1.582 1.3895 4.0256 3.674 5.8906 1.9162zm174.49 87.386c-0.50753-0.50744-0.46646-2.444 0.0667-3.167 1.6925-0.92801 1.181 4.3556-0.0667 3.167zm-200.8-3.6922c-1.1939-1.5606-1.8496-3.8686-1.2604-5.2956 0.26629-0.63735 0.70725-1.4054 0.98018-1.7068 2.0252 0.0744 7.318-2.9465 8.6419-5.2762 0.78528-1.4279 1.6472-1.3485 2.7781 0.25609 0.78305 1.3599 2.2885 1.7291 3.3287 2.638-3.3143 3.4509-7.9995 5.012-10.956 7.9056-1.3592 1.1901-4.1137-0.0521-2.8887 1.3163 0.79115 0.87407 0.23339 1.0194-0.62354 0.16247zm188.24-4.6864c-1.2724-1.9217 0.48272-9.0672 2.0472-8.9073 0.63399 1.2973 0.82445 8.602-0.5536 9.4125-0.7649 0.40939-0.77763 0.40513-1.4936-0.50512zm3.4928-12.933c-0.29353-0.32437-0.46535-0.92538-0.40786-1.4271 0.0837-0.73503 0.31759-0.93641 1.5363-1.3248 2.1787-0.69444 2.3392-1.0196 0.96474-1.9536-2.8061-1.5914-4.8627 0.0984-7.5875 0.12144-1.5792 0-1.7342-0.0655-2.2899-0.9801-1.1675-1.9198-1.1605-3.8956 8e-3 -2.3743l0.58306 0.75885 6e-3 -1.1451c0.2456-2.8095 1.8192 0.83348 1.0193 1.4997-0.50182 0.40849-0.40869 0.43689 0.98185 0.29965 2.1451-0.17853 10.335-2.6216 10.995-1.7038 0.29471 0.47685-0.70428 1.4435-1.723 1.6672-1.2361 0.27156-1.1017 0.93858 0.33697 1.6726 0.97698 0.49843 1.2208 0.79002 1.2177 1.4567-4e-3 0.86344-0.40416 1.2036-3.7108 3.1532-0.87304 0.44973-1.4841 0.76838-1.9314 0.27949zm-171.92-3.0192c-8.0649 7e-3 -7.024-24.451-5.1855-23.19 0.0722 0.0722 0.20223 1.7727 0.28801 3.7784 0.42651 9.9544 2.8418 16.54 6.6211 18.052 2.806 2.1614-0.84035 1.7623-1.7236 1.3603zm10.556-4.0091c1.8826 0.7641 6.9131 0.29792 7.6124 2.633-3.5927 2.2518-11.428-2.5038-7.6124-2.633zm-5.6199 1.934c-0.11207-0.11195-0.2036-0.59774-0.2036-1.0795 0-0.77139-0.0699-0.83818-0.59068-0.55983-0.94516 0.50586-1.638 0.37619-3.1656-0.59268-2.3408-1.4845-4.8503-6.1583-4.3583-8.1176 0.2637-1.0508 0.78735-0.81977 1.6487 0.72759 0.4112 1.0424 6.9848 0.55225 7.7638 0.22391 1.4942 0.82649-2.6571 5.6189-1.1521 5.6319 2.5546-2.7881 2.6655-5.3756 3.2132-8.9132 8e-5 -0.11583-0.60562-4e-3 -1.346 0.24823-4.6958 0.87266-9.6073-5.7941-8.7634-9.5627 0.43017-1.6084 1.0654-0.9989 1.7462 1.6756 0.73452 2.8859 1.7653 4.4056 3.7339 5.5057 0.98851 0.55247 1.2705 0.61147 1.2705 0.26643 0-0.24401-0.21363-0.62082-0.47476-0.83749-2.2642-2.9085 0.29523-2.4291 1.3908-3.0326 0-0.44017-1.2651-1.1914-2.3826-1.4149-1.325-0.26495-1.2277-0.58328 0.36411-1.1913 1.5541-0.59341 1.9216-0.46912 4.1935 1.4183 1.8698 1.5533 2.2923 2.572 1.6773 4.044-1.0545 3.5402 1.1314 6.6568-0.0512 10.21-1.2493 3.6796-3.5072 6.3566-4.5129 5.3506zm152.54-1.6897c-0.53799-0.53785-0.46052-0.97048 0.49323-2.7566 0.47283-0.88554 1.2481-2.5349 1.7228-3.6652 1.5083-3.2024 3.7604-4.1837 6.5785-6.4904 1.7962-1.4744 2.4556-1.6287 4.0355-0.94413 2.7279 1.1818 6.0845 2.3725 6.2425 2.2145 0.29627-0.2962-4.2649-5.6305-5.1407-6.0123-2.1994-0.2559-9.317 3.1484-10.095 4.8777-1.5705 3.9776-3.8211 7.5197-4.4063 6.9344-0.26917-0.26917 4.0899-9.0777 4.7414-9.5808 1.833-1.1833 10.041-5.2522 10.684-4.0434 0.28762 0.86248 4.412 5.2031 4.8612 5.1157 0.67036-1.0283-4.8972-7.9016-6.9937-10.057-0.54779-0.54786-0.636-0.55244-1.5677-0.0821-2.7263 1.3751-7.3341 4.2682-8.3142 5.2201-1.4527 1.4107-2.7416 4.2673-2.3316 5.1672 0.51474 2.5869-3.9429 6.2232-1.8638 2.5561 0.88568-1.5387 0.87446-2.1147-0.0234-1.2699-0.73641 0.69181-1.4308 0.8731-1.4308 0.37356 0-0.55304 2.719-5.9904 3.6123-7.2234 1.4861-2.0515 9.5604-7.1308 12.114-7.6206 0.87995-0.16871 0.95507-0.0926 1.9045 1.9064 2.5186 4.1362 4.6816 6.1841 8.0198 9.8922 0.0274 1.5168-0.25572 5.1238 1.2452 5.1678 0.86189 0 1.285 0.85254 1.285 2.59 0 2.6084-1.4532 4.115-3.1124 3.227-1.2269-1.2764-0.20326-2.6317-1.021-4.2081-2.6373-1.2705-5.4034-1.5622-8.0424-3.1837-1.0295-0.65279-1.6519-0.85769-2.1932-0.72186-0.84308 0.21166-8.3175 7.4223-8.3161 8.0225 2e-3 0.20994 0.19241 0.38172 0.42644 0.38172 0.65396 0.21576 0.82915 0.93668 1.4473 1.1766 0.61099 0.22601 0.50708 0.37346-1.2866 1.8248-2.0006 1.6187-2.6329 1.8529-3.2733 1.2125zm2.089-2.3994c0.36561-0.51353 0.56993-1.0286 0.45379-1.1446-0.20569-0.20588-0.82503 0.46951-1.4156 1.5439-0.50519 0.91913 0.24461 0.60782 0.96177-0.39926zm-192.27-0.62182c-0.34692-7.0694-1.3125-12.441-0.22269-20.835 6.3267 0.64029 7.292-0.96362 10.959-3.45 0.71202-0.4666 0.80502-0.46487 1.3462 0.0236 0.19181 6.4691 8.5597 19.917 4.8219 25.306-6.0056-2.4454-10.176 2.9282-16.905-1.0464zm85.688-0.71969c0-1.0526 2.9175-0.60113 4.3513 0.67341 1.0879 1.8786-4.322 0.30331-4.3513-0.67341zm112.88 0.54477c-0.48904-0.48902-0.10644-0.99625 1.2227-1.6211 0.96095-0.45169 1.2999-0.74854 1.0387-0.90994-0.21317-0.13173-0.33855-0.49786-0.27858-0.81363 0.13391-0.70592 2.0437-0.94602 3.3199-0.41741 0.71353 0.29556 1.1974 0.22469 3.0639-0.44858 3.227-1.4618 3.147 0.3926 0.70211 1.1741-1.6727 0.46259-8.6372 3.4698-9.069 3.0366zm-178.67-0.78883c-0.0646-0.20993-0.19252-2.0994-0.28346-4.1986-0.2041-4.7061-1.1702-10.072-2.379-13.212-0.99878-2.595-1.0236-3.8522-0.0363-1.904 0.76178 1.5049 2.3655 6.6892 2.8341 9.1608 0.53467 2.8215 0.78625 10.535 0.34352 10.535-0.19789 0-0.41285-0.17184-0.47771-0.38173zm38.731-5.2666c-1.0264-0.37167-2.0227-0.77255-2.2139-0.89083-0.58756-0.9312 3.4142-6.5075 4.6159-6.5914 0.82435 0 0.89376 0.52602 0.23892 1.8096-0.78008 1.529-0.78245 2.1794-0.0111 3.1597 0.67509 0.85807 0.76181 1.5066 0.31391 2.3436-0.46433 0.8675-0.94061 0.89492-2.9434 0.16947zm0.85839-10.597c-0.65406-0.6539-0.39116-1.5997 0.86798-3.1233 0.67892-0.82156 1.1925-1.7114 1.1413-1.9772-0.0505-0.26592-1.0602-0.96536-2.2421-1.5543-1.1821-0.58885-2.877-1.5954-3.7667-2.2367l-1.6175-1.166-1.1851 0.78433c-1.4807 0.97973-1.809 0.9836-1.809 0.0198 0-1.0701-0.35595-0.94962-1.0687 0.36189-0.65989 1.2142-1.3742 1.6697-1.3742 0.87635 0.50391-2.5113 3.4676-6.4497 2.8415-8.9174-0.24651-0.64203-1.4839-0.48702-2.4362 0.30521-2.5551 2.1254-3.6838 1.7531-2.0714-0.68326 1.0687-1.3961 2.3758-2.044 3.8744-2.8597-0.53183-3.7734-2.4901-7.6265-4.6856-10.47-0.64358-1.0546-6.5015-6.1775-5.1905-6.2484 7.4197 5.1458 11.659 11.641 11.767 19.776 0.025 3.5318 0.26992 3.8866 2.0571 2.995 1.7857-0.89082 1.9697-0.42502 0.54359 1.3756l-0.93417 1.1794 2.232 1.4394c1.2276 0.79166 3.0563 1.8709 4.064 2.3984 1.0078 0.52741 2.0311 1.3129 2.2743 1.7455 0.40396 0.71843 0.3672 0.97756-0.42611 2.9994-0.80939 2.0631-1.67 3.3458-2.2452 3.3458-0.13435 0-0.40919-0.16492-0.61067-0.36649zm-40.682-3.9085c-0.4841 0-0.58147-0.98737-0.17498-1.7751 2.0139-9.3321 1.1414-7.1694 6.4459-14.609 1.0753-1.6414 2.7796-0.13876 2.0462 1.8043-0.5093 1.3493-0.21686 1.4115 1.0162 0.21641 2.0635-1.6936 4.9475-1.4633 6.9311-0.4469 3.4152 1.6895 3.8826 4.449 1.8617 6.8478-0.73982 0.74959-0.98668 1.6791 0.0504 0.93914 1.1081-0.403 2.1178-0.58705 2.7472-1.4 0.54363-0.71272 0.93903-0.99049 1.1333-0.79619-0.21844 2.2279-1.6622 2.6176-2.8118 4.6742 0.45263 0.36464 0.98427 0.48289 1.2215 0.99449-0.59495 2.3682-5.9929 5.0852-7.5554 3.4745-1.3232-3.0377 1.1698-3.9635-0.50977-5.698-1.5343-1.5712-1.206-2.1613 0.61015-1.097 2.6594 1.5483 3.8657-3.6443 3.6472-4.293-1.738-3.1771-5.7304-3.6365-7.6898-1.8732-3.7016 4.6042-3.2305 10.611-2.4951 15.938 0.0781 0.48634-0.0873 0.62388-0.81742 0.67527-2.5207-0.62644-3.3092-2.1938-5.6575-3.5763zm17.719-15.902c-0.64794-2.577-2.6087-3.1228-4.7801-2.3608-1.3789 0.49867-1.6732 0.045-0.56368-0.86724 1.4267-0.94971 2.7025-0.73427 4.3512-0.24704 1.6839-0.0385-2.0949-1.7556-2.6719-2.4839 0-0.39761 2.1119-2.4011 2.7813-2.6386 0.23371-0.0825 0.34769-0.23532 0.25338-0.3387-1.3646-0.0884-2.5137 0.74631-3.8807 0.58156 0.80455-2.2203 4.4468-2.3728 6.0192-1.8861 1.9518 0.63835 1.9526 0.63821 1.7067-0.34689-0.36445-1.4606-1.9962-2.713-4.2371-3.2524-1.4877-0.3581-4.1322 0.61533-5.3799 1.9802-1.687 1.8455-3.2501 1.4733-1.9762-0.47056 1.5152-1.781 3.839-2.9789 5.6926-3.1363 1.7328-0.13905 2.1484-0.0538 3.7835 0.77108 2.7906 1.4086 4.1006 3.6308 4.0863 6.9307-0.0107 2.5756-1.7604 5.3458-3.3754 5.3458-1.5362 0.55906 0.0148 1.8935-0.77885 2.7909-0.73448 0.81154-1.0302 0.70489-1.0302-0.37155zm-30.828-7.58c3.77-5.003 10.274-9.3356 16.967-11.302 4.204-1.0386 5.0562-0.672 1.2648 1.1718-5.6966 3.176-12.338 7.6348-16.631 11.855-4.8721 5.1776-3.359 0.63321-1.5999-1.7254z" />
  </g>
</svg>
